<?xml version="1.0" encoding="UTF-8"?>
<svg version="1.1" xmlns="http://www.w3.org/2000/svg" width="348" height="348">
<path d="M0 0 C114.84 0 229.68 0 348 0 C348 114.84 348 229.68 348 348 C233.16 348 118.32 348 0 348 C0 233.16 0 118.32 0 0 Z " fill="#EFEFEF" transform="translate(0,0)"/>
<path d="M0 0 C4.95 0 9.9 0 15 0 C15 4.95 15 9.9 15 15 C19.95 15 24.9 15 30 15 C30 10.05 30 5.1 30 0 C34.95 0 39.9 0 45 0 C45 0.66 45 1.32 45 2 C79.32 2.33 113.64 2.66 149 3 C149.33 41.61 149.66 80.22 150 120 C145.05 120 140.1 120 135 120 C135 124.95 135 129.9 135 135 C130.05 135 125.1 135 120 135 C120 135.99 120 136.98 120 138 C129.57 138.33 139.14 138.66 149 139 C149.33 172.33 149.66 205.66 150 240 C154.95 240 159.9 240 165 240 C165 244.95 165 249.9 165 255 C160.05 255 155.1 255 150 255 C150 256.32 150 257.64 150 259 C145.05 259 140.1 259 135 259 C135 257.68 135 256.36 135 255 C130.05 255 125.1 255 120 255 C120 256.32 120 257.64 120 259 C115.05 259 110.1 259 105 259 C105 257.68 105 256.36 105 255 C100.05 255 95.1 255 90 255 C90 256.32 90 257.64 90 259 C85.05 259 80.1 259 75 259 C75 257.68 75 256.36 75 255 C70.05 255 65.1 255 60 255 C60 256.32 60 257.64 60 259 C55.05 259 50.1 259 45 259 C45 257.68 45 256.36 45 255 C40.05 255 35.1 255 30 255 C30 250.05 30 245.1 30 240 C25.05 240 20.1 240 15 240 C15 235.05 15 230.1 15 225 C19.95 225 24.9 225 30 225 C30 220.05 30 215.1 30 210 C25.05 210 20.1 210 15 210 C15 205.05 15 200.1 15 195 C10.05 195 5.1 195 0 195 C0 199.95 0 204.9 0 210 C-4.95 210 -9.9 210 -15 210 C-15 205.05 -15 200.1 -15 195 C-19.95 195 -24.9 195 -30 195 C-30 190.05 -30 185.1 -30 180 C-34.95 180 -39.9 180 -45 180 C-45 175.05 -45 170.1 -45 165 C-40.05 165 -35.1 165 -30 165 C-30 160.05 -30 155.1 -30 150 C-34.95 150 -39.9 150 -45 150 C-45 145.05 -45 140.1 -45 135 C-49.95 135 -54.9 135 -60 135 C-60 130.05 -60 125.1 -60 120 C-64.95 120 -69.9 120 -75 120 C-75 124.95 -75 129.9 -75 135 C-79.95 135 -84.9 135 -90 135 C-90 130.05 -90 125.1 -90 120 C-94.95 120 -99.9 120 -105 120 C-105 115.05 -105 110.1 -105 105 C-104.34 105 -103.68 105 -103 105 C-102.67 71.34 -102.34 37.68 -102 3 C-68.34 3 -34.68 3 0 3 C0 2.01 0 1.02 0 0 Z " fill="#F7F7F7" transform="translate(150,15)"/>
<path d="M0 0 C95.04 0 190.08 0 288 0 C288 114.84 288 229.68 288 348 C173.16 348 58.32 348 -60 348 C-60 342.06 -60 336.12 -60 330 C-55.05 330 -50.1 330 -45 330 C-45 334.95 -45 339.9 -45 345 C-40.05 345 -35.1 345 -30 345 C-30 340.38 -30 335.76 -30 331 C-29.34 330.67 -28.68 330.34 -28 330 C-28 330.66 -28 331.32 -28 332 C65.39 332 158.78 332 255 332 C255 313.52 255 295.04 255 276 C161.61 276 68.22 276 -28 276 C-28 283.92 -28 291.84 -28 300 C-31.0957232 301.5478616 -34.26504398 300.83182026 -37.625 300.5625 C-40.05875 300.376875 -42.4925 300.19125 -45 300 C-45 295.05 -45 290.1 -45 285 C-40.05 285 -35.1 285 -30 285 C-30 280.05 -30 275.1 -30 270 C-25.05 270 -20.1 270 -15 270 C-15 265.05 -15 260.1 -15 255 C-19.95 255 -24.9 255 -30 255 C-30 250.05 -30 245.1 -30 240 C-25.05 240 -20.1 240 -15 240 C-15 235.05 -15 230.1 -15 225 C-19.95 225 -24.9 225 -30 225 C-30 220.05 -30 215.1 -30 210 C-25.05 210 -20.1 210 -15 210 C-15 205.05 -15 200.1 -15 195 C-14.01 194.67 -13.02 194.34 -12 194 C-12 217.76 -12 241.52 -12 266 C25.62 266 63.24 266 102 266 C102 253.46 102 240.92 102 228 C77.25 228 52.5 228 27 228 C27 203.58 27 179.16 27 154 C14.79 154 2.58 154 -10 154 C-10 153.67 -10 153.34 -10 153 C-6.7 153 -3.4 153 0 153 C0 152.01 0 151.02 0 150 C4.95 150 9.9 150 15 150 C15 145.05 15 140.1 15 135 C19.95 135 24.9 135 30 135 C30 139.95 30 144.9 30 150 C34.95 150 39.9 150 45 150 C45 154.95 45 159.9 45 165 C49.95 165 54.9 165 60 165 C60 169.95 60 174.9 60 180 C55.05 180 50.1 180 45 180 C45 184.95 45 189.9 45 195 C49.95 195 54.9 195 60 195 C60 199.95 60 204.9 60 210 C64.95 210 69.9 210 75 210 C75 214.95 75 219.9 75 225 C79.95 225 84.9 225 90 225 C90 220.05 90 215.1 90 210 C94.95 210 99.9 210 105 210 C105 214.95 105 219.9 105 225 C109.95 225 114.9 225 120 225 C120 229.95 120 234.9 120 240 C115.05 240 110.1 240 105 240 C105 244.95 105 249.9 105 255 C109.95 255 114.9 255 120 255 C120 259.95 120 264.9 120 270 C124.95 270 129.9 270 135 270 C135 271.32 135 272.64 135 274 C139.95 274 144.9 274 150 274 C150 272.68 150 271.36 150 270 C154.95 270 159.9 270 165 270 C165 271.32 165 272.64 165 274 C169.95 274 174.9 274 180 274 C180 272.68 180 271.36 180 270 C184.95 270 189.9 270 195 270 C195 271.32 195 272.64 195 274 C199.95 274 204.9 274 210 274 C210 272.68 210 271.36 210 270 C214.95 270 219.9 270 225 270 C225 271.32 225 272.64 225 274 C229.95 274 234.9 274 240 274 C240 272.68 240 271.36 240 270 C244.95 270 249.9 270 255 270 C255 265.05 255 260.1 255 255 C250.05 255 245.1 255 240 255 C240 258.63 240 262.26 240 266 C239.67 266 239.34 266 239 266 C239 229.04 239 192.08 239 154 C226.79 154 214.58 154 202 154 C202 153.67 202 153.34 202 153 C204.64 153 207.28 153 210 153 C210 152.01 210 151.02 210 150 C214.95 150 219.9 150 225 150 C225 145.05 225 140.1 225 135 C229.95 135 234.9 135 240 135 C239.67 133.35 239.34 131.7 239 130 C238.91589709 128.38394853 238.87792928 126.76501172 238.87974548 125.14677429 C238.87836799 124.19947543 238.87699049 123.25217657 238.87557125 122.27617168 C238.87916936 121.24490563 238.88276747 120.21363958 238.88647461 119.15112305 C238.88629381 117.48497184 238.88629381 117.48497184 238.88610935 115.78516102 C238.88685501 112.19399314 238.8944675 108.60287733 238.90234375 105.01171875 C238.90381424 102.79284693 238.90483429 100.57397477 238.90539551 98.35510254 C238.91063595 90.13256307 238.92459717 81.91003102 238.9375 73.6875 C238.958125 55.310625 238.97875 36.93375 239 18 C202.04 18 165.08 18 127 18 C127 17.67 127 17.34 127 17 C129.64 17 132.28 17 135 17 C135 16.34 135 15.68 135 15 C130.05 15 125.1 15 120 15 C120 19.95 120 24.9 120 30 C115.05 30 110.1 30 105 30 C105 25.05 105 20.1 105 15 C100.05 15 95.1 15 90 15 C90 15.99 90 16.98 90 18 C56.34 18 22.68 18 -12 18 C-12 51.99 -12 85.98 -12 121 C-12.99 120.67 -13.98 120.34 -15 120 C-15 115.05 -15 110.1 -15 105 C-19.95 105 -24.9 105 -30 105 C-30 100.05 -30 95.1 -30 90 C-25.05 90 -20.1 90 -15 90 C-15 85.05 -15 80.1 -15 75 C-19.95 75 -24.9 75 -30 75 C-30 70.05 -30 65.1 -30 60 C-25.05 60 -20.1 60 -15 60 C-15 55.05 -15 50.1 -15 45 C-19.95 45 -24.9 45 -30 45 C-30 40.05 -30 35.1 -30 30 C-25.05 30 -20.1 30 -15 30 C-15 25.05 -15 20.1 -15 15 C-10.05 15 -5.1 15 0 15 C0 10.05 0 5.1 0 0 Z " fill="#F9F9F9" transform="translate(60,0)"/>
<path d="M0 0 C30.03 0 60.06 0 91 0 C91 30.03 91 60.06 91 91 C86.545 91.495 86.545 91.495 82 92 C82 93.98 82 95.96 82 98 C86.95 98 91.9 98 97 98 C97 102.95 97 107.9 97 113 C101.95 113 106.9 113 112 113 C112 108.05 112 103.1 112 98 C116.95 98 121.9 98 127 98 C127 93.05 127 88.1 127 83 C122.05 83 117.1 83 112 83 C112 78.05 112 73.1 112 68 C116.95 68 121.9 68 127 68 C127 63.05 127 58.1 127 53 C131.95 53 136.9 53 142 53 C142 53.99 142 54.98 142 56 C151.57 56.33 161.14 56.66 171 57 C171.33 90.33 171.66 123.66 172 158 C176.95 158 181.9 158 187 158 C187 162.95 187 167.9 187 173 C182.05 173 177.1 173 172 173 C172 174.32 172 175.64 172 177 C167.05 177 162.1 177 157 177 C157 175.68 157 174.36 157 173 C152.05 173 147.1 173 142 173 C142 174.32 142 175.64 142 177 C137.05 177 132.1 177 127 177 C127 175.68 127 174.36 127 173 C122.05 173 117.1 173 112 173 C112 174.32 112 175.64 112 177 C107.05 177 102.1 177 97 177 C97 175.68 97 174.36 97 173 C92.05 173 87.1 173 82 173 C82 174.32 82 175.64 82 177 C77.05 177 72.1 177 67 177 C67 175.68 67 174.36 67 173 C62.05 173 57.1 173 52 173 C52 168.05 52 163.1 52 158 C47.05 158 42.1 158 37 158 C37 153.05 37 148.1 37 143 C41.95 143 46.9 143 52 143 C52 138.05 52 133.1 52 128 C47.05 128 42.1 128 37 128 C37 123.05 37 118.1 37 113 C32.05 113 27.1 113 22 113 C22 117.95 22 122.9 22 128 C17.05 128 12.1 128 7 128 C7 123.05 7 118.1 7 113 C2.05 113 -2.9 113 -8 113 C-8 108.05 -8 103.1 -8 98 C-12.95 98 -17.9 98 -23 98 C-23 93.05 -23 88.1 -23 83 C-18.05 83 -13.1 83 -8 83 C-8 78.05 -8 73.1 -8 68 C-12.95 68 -17.9 68 -23 68 C-23 63.05 -23 58.1 -23 53 C-15.74 52.67 -8.48 52.34 -1 52 C-0.67 34.84 -0.34 17.68 0 0 Z " fill="#F1F1F1" transform="translate(128,97)"/>
<path d="M0 0 C93.06 0 186.12 0 282 0 C282 18.48 282 36.96 282 56 C188.94 56 95.88 56 0 56 C0 37.52 0 19.04 0 0 Z " fill="#031D78" transform="translate(33,276)"/>
<path d="M0 0 C30.03 0 60.06 0 91 0 C91 29.7 91 59.4 91 90 C60.97 90 30.94 90 0 90 C0 60.3 0 30.6 0 0 Z " fill="#003296" transform="translate(128,97)"/>
<path d="M0 0 C12.54 0 25.08 0 38 0 C38 36.96 38 73.92 38 112 C0.71 112 -36.58 112 -75 112 C-75 99.46 -75 86.92 -75 74 C-50.25 74 -25.5 74 0 74 C0 49.58 0 25.16 0 0 Z " fill="#FE0101" transform="translate(261,154)"/>
<path d="M0 0 C12.54 0 25.08 0 38 0 C38 24.42 38 48.84 38 74 C62.75 74 87.5 74 113 74 C113 86.54 113 99.08 113 112 C75.71 112 38.42 112 0 112 C0 75.04 0 38.08 0 0 Z " fill="#FE0101" transform="translate(49,154)"/>
<path d="M0 0 C37.29 0 74.58 0 113 0 C113 36.96 113 73.92 113 112 C100.46 112 87.92 112 75 112 C75 87.58 75 63.16 75 38 C50.25 38 25.5 38 0 38 C0 25.46 0 12.92 0 0 Z " fill="#FE0000" transform="translate(186,18)"/>
<path d="M0 0 C37.29 0 74.58 0 113 0 C113 12.54 113 25.08 113 38 C87.92 38 62.84 38 37 38 C37 62.42 37 86.84 37 112 C24.79 112 12.58 112 0 112 C0 75.04 0 38.08 0 0 Z " fill="#FE0000" transform="translate(49,18)"/>
<path d="M0 0 C0 12.54 0 25.08 0 38 C30.03 38 60.06 38 91 38 C91 38.33 91 38.66 91 39 C86.545 39.495 86.545 39.495 82 40 C82 41.98 82 43.96 82 46 C77.05 46 72.1 46 67 46 C67 44.02 67 42.04 67 40 C62.05 40 57.1 40 52 40 C52 41.98 52 43.96 52 46 C47.05 46 42.1 46 37 46 C37 44.02 37 42.04 37 40 C32.05 40 27.1 40 22 40 C22 41.98 22 43.96 22 46 C17.05 46 12.1 46 7 46 C7 50.95 7 55.9 7 61 C2.05 61 -2.9 61 -8 61 C-8 56.05 -8 51.1 -8 46 C-12.95 46 -17.9 46 -23 46 C-23 41.05 -23 36.1 -23 31 C-18.05 31 -13.1 31 -8 31 C-8 26.05 -8 21.1 -8 16 C-12.95 16 -17.9 16 -23 16 C-23 11.05 -23 6.1 -23 1 C-19.35417893 0.83306134 -15.70834403 0.66643582 -12.0625 0.5 C-11.02158203 0.45230469 -9.98066406 0.40460938 -8.90820312 0.35546875 C-7.91884766 0.31035156 -6.92949219 0.26523438 -5.91015625 0.21875 C-4.99371338 0.17685547 -4.07727051 0.13496094 -3.13305664 0.09179688 C-1 0 -1 0 0 0 Z " fill="#F5F5F5" transform="translate(128,149)"/>
<path d="M0 0 C4.95 0 9.9 0 15 0 C15 0.99 15 1.98 15 3 C11.04 3 7.08 3 3 3 C3 36.99 3 70.98 3 106 C1.515 105.505 1.515 105.505 0 105 C0 100.05 0 95.1 0 90 C-4.95 90 -9.9 90 -15 90 C-15 85.05 -15 80.1 -15 75 C-10.05 75 -5.1 75 0 75 C0 70.05 0 65.1 0 60 C-4.95 60 -9.9 60 -15 60 C-15 55.05 -15 50.1 -15 45 C-10.05 45 -5.1 45 0 45 C0 40.05 0 35.1 0 30 C-4.95 30 -9.9 30 -15 30 C-15 25.05 -15 20.1 -15 15 C-10.05 15 -5.1 15 0 15 C0 10.05 0 5.1 0 0 Z " fill="#FFFFFF" transform="translate(45,15)"/>
<path d="M0 0 C4.5478125 -0.12375 4.5478125 -0.12375 9.1875 -0.25 C10.60712036 -0.30462402 10.60712036 -0.30462402 12.05541992 -0.36035156 C16.19905404 -0.41489043 18.42848789 -0.35351265 22.03125 1.875 C25.74238289 5.88066725 26.4080838 9.56020581 26.25390625 15.0078125 C25.75679218 18.90824594 24.10633763 21.77841887 21.5 24.65625 C17.55591137 26.77619764 13.64418316 26.31310102 9.25 26.1875 C4.67125 26.0946875 4.67125 26.0946875 0 26 C0 17.42 0 8.84 0 0 Z " fill="#F9FAFB" transform="translate(81,291)"/>
<path d="M0 0 C3.2175 -0.0825 6.435 -0.165 9.75 -0.25 C11.26158691 -0.30462402 11.26158691 -0.30462402 12.80371094 -0.36035156 C19.35831317 -0.44198783 19.35831317 -0.44198783 22.6484375 1.82421875 C24 4 24 4 23.875 7.0625 C23 10 23 10 21 13 C21.99 13.33 22.98 13.66 24 14 C24.90016347 17.82569474 25.42635914 20.11682749 23.6875 23.71875 C19.53090261 27.24702453 15.505809 26.53821694 10.25 26.3125 C6.8675 26.209375 3.485 26.10625 0 26 C0 17.42 0 8.84 0 0 Z " fill="#F6F7FA" transform="translate(178,291)"/>
<path d="M0 0 C0.33 0 0.66 0 1 0 C1 18.48 1 36.96 1 56 C0.34 55.67 -0.32 55.34 -1 55 C-1.33 59.62 -1.66 64.24 -2 69 C-6.95 69 -11.9 69 -17 69 C-17 64.05 -17 59.1 -17 54 C-12.05 54 -7.1 54 -2 54 C-2 49.05 -2 44.1 -2 39 C-6.95 39 -11.9 39 -17 39 C-17 34.05 -17 29.1 -17 24 C-11.72 24 -6.44 24 -1 24 C-0.67 16.08 -0.34 8.16 0 0 Z " fill="#EDEDEF" transform="translate(32,276)"/>
<path d="M0 0 C2.97 0 5.94 0 9 0 C11.14865588 2.32425183 12.21650763 3.77401125 13.5625 6.5 C13.90345703 7.12003906 14.24441406 7.74007813 14.59570312 8.37890625 C15.42799376 9.90281867 16.21835976 11.44949837 17 13 C17.33 8.71 17.66 4.42 18 0 C20.64 0 23.28 0 26 0 C26 8.58 26 17.16 26 26 C17 26 17 26 14.58984375 23.59375 C14.04457031 22.5728125 13.49929687 21.551875 12.9375 20.5 C12.36902344 19.4790625 11.80054688 18.458125 11.21484375 17.40625 C10.81394531 16.6121875 10.41304687 15.818125 10 15 C9.67 18.96 9.34 22.92 9 27 C6.03 27 3.06 27 0 27 C0 18.09 0 9.18 0 0 Z " fill="#F8F8FA" transform="translate(237,291)"/>
<path d="M0 0 C2.97 0 5.94 0 9 0 C9 2.97 9 5.94 9 9 C11.64 9 14.28 9 17 9 C17 6.03 17 3.06 17 0 C19.97 0 22.94 0 26 0 C26 8.58 26 17.16 26 26 C23.03 26 20.06 26 17 26 C17 22.7 17 19.4 17 16 C14.36 16 11.72 16 9 16 C9 19.3 9 22.6 9 26 C6.03 26 3.06 26 0 26 C0 17.42 0 8.84 0 0 Z " fill="#FBFBFC" transform="translate(50,291)"/>
<path d="M0 0 C4.95 0 9.9 0 15 0 C15 0.99 15 1.98 15 3 C11.7 3.33 8.4 3.66 5 4 C4.67 40.96 4.34 77.92 4 116 C3.67 116 3.34 116 3 116 C2.505 80.855 2.505 80.855 2 45 C1.34 45 0.68 45 0 45 C0 40.05 0 35.1 0 30 C-4.95 30 -9.9 30 -15 30 C-15 25.05 -15 20.1 -15 15 C-10.05 15 -5.1 15 0 15 C0 10.05 0 5.1 0 0 Z " fill="#F9E1E1" transform="translate(45,150)"/>
<path d="M0 0 C1.98 0 3.96 0 6 0 C6 3.3 6 6.6 6 10 C18.87 10 31.74 10 45 10 C45 11.65 45 13.3 45 15 C40.05 15 35.1 15 30 15 C30 19.95 30 24.9 30 30 C25.05 30 20.1 30 15 30 C15 25.05 15 20.1 15 15 C10.05 15 5.1 15 0 15 C0 10.05 0 5.1 0 0 Z " fill="#EFEFEF" transform="translate(255,120)"/>
<path d="M0 0 C2.64 0 5.28 0 8 0 C8.33 2.31 8.66 4.62 9 7 C9.30550781 6.4946875 9.61101562 5.989375 9.92578125 5.46875 C11.48646028 3.25302541 12.82802453 1.63821969 15 0 C18.73866771 -0.61029006 22.24627417 -0.42079133 26 0 C25.59007812 0.45890625 25.18015625 0.9178125 24.7578125 1.390625 C24.21898437 2.00421875 23.68015625 2.6178125 23.125 3.25 C22.59132813 3.85328125 22.05765625 4.4565625 21.5078125 5.078125 C21.01023437 5.71234375 20.51265625 6.3465625 20 7 C19.5153125 7.58910156 19.030625 8.17820312 18.53125 8.78515625 C17.67547857 11.28712099 17.67547857 11.28712099 19.7734375 14.41796875 C20.62459373 15.68539357 21.49257258 16.9416451 22.375 18.1875 C27 24.95496324 27 24.95496324 27 26 C23.51969146 26.55712449 20.45459085 26.78653631 17 26 C14.33438593 23.32917965 12.64817393 20.37674659 11 17 C10.34 17.33 9.68 17.66 9 18 C8.53476937 19.89533342 8.53476937 19.89533342 8.375 22.0625 C8.25125 23.361875 8.1275 24.66125 8 26 C5.36 26 2.72 26 0 26 C0 17.42 0 8.84 0 0 Z " fill="#FCFCFD" transform="translate(269,291)"/>
<path d="M0 0 C1.23556641 0.01740234 1.23556641 0.01740234 2.49609375 0.03515625 C3.32238281 0.04417969 4.14867187 0.05320312 5 0.0625 C5.63808594 0.07410156 6.27617187 0.08570313 6.93359375 0.09765625 C7.1351709 0.61674561 7.33674805 1.13583496 7.54443359 1.6706543 C8.46556188 4.04225542 9.38707454 6.41370701 10.30859375 8.78515625 C10.62570313 9.60177734 10.9428125 10.41839844 11.26953125 11.25976562 C11.73359375 12.45375977 11.73359375 12.45375977 12.20703125 13.671875 C12.50577148 14.44321777 12.80451172 15.21456055 13.11230469 16.00927734 C13.76952435 17.68045957 14.45950649 19.33874332 15.16015625 20.9921875 C15.93359375 23.09765625 15.93359375 23.09765625 15.93359375 26.09765625 C12.96359375 26.09765625 9.99359375 26.09765625 6.93359375 26.09765625 C6.93359375 25.10765625 6.93359375 24.11765625 6.93359375 23.09765625 C5.45350965 23.21127887 3.97449301 23.33888533 2.49609375 23.47265625 C1.67238281 23.54226563 0.84867188 23.611875 0 23.68359375 C-0.68191406 23.82023437 -1.36382812 23.956875 -2.06640625 24.09765625 C-2.39640625 24.75765625 -2.72640625 25.41765625 -3.06640625 26.09765625 C-5.70640625 26.09765625 -8.34640625 26.09765625 -11.06640625 26.09765625 C-10.40587141 20.49228419 -8.54362071 15.52993598 -6.56640625 10.28515625 C-6.08494141 8.97901367 -6.08494141 8.97901367 -5.59375 7.64648438 C-2.79413932 0.13204817 -2.79413932 0.13204817 0 0 Z " fill="#F6F7FA" transform="translate(217.06640625,290.90234375)"/>
<path d="M0 0 C3.71052627 1.57894735 5.98209901 3.4952246 8 7 C8 8.32 8 9.64 8 11 C6.72125 11.061875 5.4425 11.12375 4.125 11.1875 C3.40570313 11.22230469 2.68640625 11.25710938 1.9453125 11.29296875 C1.30335938 11.19628906 0.66140625 11.09960938 0 11 C-0.66 10.01 -1.32 9.02 -2 8 C-4.5 7.5 -4.5 7.5 -7 8 C-9.23551759 11.35327639 -9.17283528 11.90743657 -8.625 15.6875 C-8.51414063 16.49574219 -8.40328125 17.30398438 -8.2890625 18.13671875 C-8.19367188 18.75160156 -8.09828125 19.36648438 -8 20 C-5.08365871 20.2502157 -5.08365871 20.2502157 -2 20 C-1.34 19.01 -0.68 18.02 0 17 C1.9453125 16.70703125 1.9453125 16.70703125 4.125 16.8125 C5.40375 16.874375 6.6825 16.93625 8 17 C7.68031467 20.51653861 7.37757864 22.53431968 5.125 25.3125 C1.26989764 28.37390481 -2.66762044 28.44664662 -7.41796875 28.42578125 C-11.68750023 27.7217284 -14.26501449 25.22845385 -17 22 C-18.96256526 18.07486948 -18.34188699 13.28912771 -18 9 C-14.60456639 0.60076949 -8.39616519 -1.14807531 0 0 Z " fill="#F7F8FA" transform="translate(153,290)"/>
<path d="M0 0 C30.03 0 60.06 0 91 0 C91 0.33 91 0.66 91 1 C86.545 1.495 86.545 1.495 82 2 C82 3.98 82 5.96 82 8 C77.05 8 72.1 8 67 8 C67 6.02 67 4.04 67 2 C62.05 2 57.1 2 52 2 C52 3.98 52 5.96 52 8 C47.05 8 42.1 8 37 8 C37 6.02 37 4.04 37 2 C32.05 2 27.1 2 22 2 C22 3.98 22 5.96 22 8 C17.05 8 12.1 8 7 8 C7 6.02 7 4.04 7 2 C4.69 1.67 2.38 1.34 0 1 C0 0.67 0 0.34 0 0 Z " fill="#DCDFE7" transform="translate(128,187)"/>
<path d="M0 0 C6.93 0 13.86 0 21 0 C21 1.98 21 3.96 21 6 C17.04 6 13.08 6 9 6 C9 7.65 9 9.3 9 11 C11.97 11 14.94 11 18 11 C18 12.98 18 14.96 18 17 C15.03 17 12.06 17 9 17 C9 19.97 9 22.94 9 26 C6.03 26 3.06 26 0 26 C0 17.42 0 8.84 0 0 Z " fill="#FBFBFC" transform="translate(111,291)"/>
<path d="M0 0 C0.33 0 0.66 0 1 0 C1 12.54 1 25.08 1 38 C13.87 38 26.74 38 40 38 C40 39.32 40 40.64 40 42 C35.05 42 30.1 42 25 42 C25 43.32 25 44.64 25 46 C20.05 46 15.1 46 10 46 C10 44.68 10 43.36 10 42 C5.05 42 0.1 42 -5 42 C-5 37.05 -5 32.1 -5 27 C-3.35 27 -1.7 27 0 27 C0 18.09 0 9.18 0 0 Z " fill="#FFFFFF" transform="translate(185,228)"/>
<path d="M0 0 C0.33 0 0.66 0 1 0 C1 36.96 1 73.92 1 112 C13.21 112 25.42 112 38 112 C38 87.58 38 63.16 38 38 C38.33 38 38.66 38 39 38 C39 62.75 39 87.5 39 113 C30.09 113 21.18 113 12 113 C12 114.32 12 115.64 12 117 C7.05 117 2.1 117 -3 117 C-3 112.05 -3 107.1 -3 102 C-2.34 102 -1.68 102 -1 102 C-0.67 68.34 -0.34 34.68 0 0 Z " fill="#F5C6C6" transform="translate(48,18)"/>
<path d="M0 0 C5.61 0 11.22 0 17 0 C17 4.95 17 9.9 17 15 C11.39 15 5.78 15 0 15 C0 10.05 0 5.1 0 0 Z " fill="#FDFDFD" transform="translate(88,60)"/>
<path d="M0 0 C5.28 0 10.56 0 16 0 C16 4.95 16 9.9 16 15 C11.05 15 6.1 15 1 15 C1 18.63 1 22.26 1 26 C0.67 26 0.34 26 0 26 C0 17.42 0 8.84 0 0 Z " fill="#FFFFFF" transform="translate(299,240)"/>
<path d="M0 0 C0.33 0 0.66 0 1 0 C1 7.59 1 15.18 1 23 C2.65 23 4.3 23 6 23 C6 32.9 6 42.8 6 53 C4.35 53 2.7 53 1 53 C1 65.21 1 77.42 1 90 C0.67 90 0.34 90 0 90 C0 60.3 0 30.6 0 0 Z " fill="#D1D7E7" transform="translate(219,97)"/>
<path d="M0 0 C5.28 0 10.56 0 16 0 C16 4.95 16 9.9 16 15 C11.05 15 6.1 15 1 15 C-0.05127001 9.74364995 -0.07115708 5.33678117 0 0 Z " fill="#FFFFFF" transform="translate(299,120)"/>
<path d="M0 0 C4.95 0 9.9 0 15 0 C15 4.95 15 9.9 15 15 C10.05 15 5.1 15 0 15 C0 10.05 0 5.1 0 0 Z " fill="#FFFFFF" transform="translate(330,330)"/>
<path d="M0 0 C4.95 0 9.9 0 15 0 C15 4.95 15 9.9 15 15 C10.05 15 5.1 15 0 15 C0 10.05 0 5.1 0 0 Z " fill="#FFFFFF" transform="translate(15,315)"/>
<path d="M0 0 C4.95 0 9.9 0 15 0 C15 4.95 15 9.9 15 15 C10.05 15 5.1 15 0 15 C0 10.05 0 5.1 0 0 Z " fill="#EFEFEF" transform="translate(0,315)"/>
<path d="M0 0 C4.95 0 9.9 0 15 0 C15 4.95 15 9.9 15 15 C10.05 15 5.1 15 0 15 C0 10.05 0 5.1 0 0 Z " fill="#FFFFFF" transform="translate(330,300)"/>
<path d="M0 0 C4.95 0 9.9 0 15 0 C15 4.95 15 9.9 15 15 C10.05 15 5.1 15 0 15 C0 10.05 0 5.1 0 0 Z " fill="#FFFFFF" transform="translate(0,300)"/>
<path d="M0 0 C4.95 0 9.9 0 15 0 C15 4.95 15 9.9 15 15 C10.05 15 5.1 15 0 15 C0 10.05 0 5.1 0 0 Z " fill="#EFEFEF" transform="translate(0,285)"/>
<path d="M0 0 C4.95 0 9.9 0 15 0 C15 4.95 15 9.9 15 15 C10.05 15 5.1 15 0 15 C0 10.05 0 5.1 0 0 Z " fill="#EFEFEF" transform="translate(15,270)"/>
<path d="M0 0 C4.95 0 9.9 0 15 0 C15 4.95 15 9.9 15 15 C10.05 15 5.1 15 0 15 C0 10.05 0 5.1 0 0 Z " fill="#FFFFFF" transform="translate(0,270)"/>
<path d="M0 0 C4.95 0 9.9 0 15 0 C15 4.95 15 9.9 15 15 C10.05 15 5.1 15 0 15 C0 10.05 0 5.1 0 0 Z " fill="#EFEFEF" transform="translate(300,255)"/>
<path d="M0 0 C4.95 0 9.9 0 15 0 C15 4.95 15 9.9 15 15 C10.05 15 5.1 15 0 15 C0 10.05 0 5.1 0 0 Z " fill="#EFEFEF" transform="translate(30,255)"/>
<path d="M0 0 C4.95 0 9.9 0 15 0 C15 4.95 15 9.9 15 15 C10.05 15 5.1 15 0 15 C0 10.05 0 5.1 0 0 Z " fill="#FFFFFF" transform="translate(15,255)"/>
<path d="M0 0 C4.95 0 9.9 0 15 0 C15 4.95 15 9.9 15 15 C10.05 15 5.1 15 0 15 C0 10.05 0 5.1 0 0 Z " fill="#EFEFEF" transform="translate(0,255)"/>
<path d="M0 0 C4.95 0 9.9 0 15 0 C15 4.95 15 9.9 15 15 C10.05 15 5.1 15 0 15 C0 10.05 0 5.1 0 0 Z " fill="#FFFFFF" transform="translate(330,240)"/>
<path d="M0 0 C4.95 0 9.9 0 15 0 C15 4.95 15 9.9 15 15 C10.05 15 5.1 15 0 15 C0 10.05 0 5.1 0 0 Z " fill="#EFEFEF" transform="translate(315,240)"/>
<path d="M0 0 C4.95 0 9.9 0 15 0 C15 4.95 15 9.9 15 15 C10.05 15 5.1 15 0 15 C0 10.05 0 5.1 0 0 Z " fill="#FFFFFF" transform="translate(30,240)"/>
<path d="M0 0 C4.95 0 9.9 0 15 0 C15 4.95 15 9.9 15 15 C10.05 15 5.1 15 0 15 C0 10.05 0 5.1 0 0 Z " fill="#EFEFEF" transform="translate(15,240)"/>
<path d="M0 0 C4.95 0 9.9 0 15 0 C15 4.95 15 9.9 15 15 C10.05 15 5.1 15 0 15 C0 10.05 0 5.1 0 0 Z " fill="#FFFFFF" transform="translate(0,240)"/>
<path d="M0 0 C4.95 0 9.9 0 15 0 C15 4.95 15 9.9 15 15 C10.05 15 5.1 15 0 15 C0 10.05 0 5.1 0 0 Z " fill="#FFFFFF" transform="translate(315,225)"/>
<path d="M0 0 C4.95 0 9.9 0 15 0 C15 4.95 15 9.9 15 15 C10.05 15 5.1 15 0 15 C0 10.05 0 5.1 0 0 Z " fill="#EFEFEF" transform="translate(300,225)"/>
<path d="M0 0 C4.95 0 9.9 0 15 0 C15 4.95 15 9.9 15 15 C10.05 15 5.1 15 0 15 C0 10.05 0 5.1 0 0 Z " fill="#EFEFEF" transform="translate(30,225)"/>
<path d="M0 0 C4.95 0 9.9 0 15 0 C15 4.95 15 9.9 15 15 C10.05 15 5.1 15 0 15 C0 10.05 0 5.1 0 0 Z " fill="#FFFFFF" transform="translate(15,225)"/>
<path d="M0 0 C4.95 0 9.9 0 15 0 C15 4.95 15 9.9 15 15 C10.05 15 5.1 15 0 15 C0 10.05 0 5.1 0 0 Z " fill="#EFEFEF" transform="translate(0,225)"/>
<path d="M0 0 C4.95 0 9.9 0 15 0 C15 4.95 15 9.9 15 15 C10.05 15 5.1 15 0 15 C0 10.05 0 5.1 0 0 Z " fill="#FFFFFF" transform="translate(330,210)"/>
<path d="M0 0 C4.95 0 9.9 0 15 0 C15 4.95 15 9.9 15 15 C10.05 15 5.1 15 0 15 C0 10.05 0 5.1 0 0 Z " fill="#EFEFEF" transform="translate(315,210)"/>
<path d="M0 0 C4.95 0 9.9 0 15 0 C15 4.95 15 9.9 15 15 C10.05 15 5.1 15 0 15 C0 10.05 0 5.1 0 0 Z " fill="#FFFFFF" transform="translate(240,210)"/>
<path d="M0 0 C4.95 0 9.9 0 15 0 C15 4.95 15 9.9 15 15 C10.05 15 5.1 15 0 15 C0 10.05 0 5.1 0 0 Z " fill="#FFFFFF" transform="translate(210,210)"/>
<path d="M0 0 C4.95 0 9.9 0 15 0 C15 4.95 15 9.9 15 15 C10.05 15 5.1 15 0 15 C0 10.05 0 5.1 0 0 Z " fill="#FFFFFF" transform="translate(180,210)"/>
<path d="M0 0 C4.95 0 9.9 0 15 0 C15 4.95 15 9.9 15 15 C10.05 15 5.1 15 0 15 C0 10.05 0 5.1 0 0 Z " fill="#EFEFEF" transform="translate(165,210)"/>
<path d="M0 0 C4.95 0 9.9 0 15 0 C15 4.95 15 9.9 15 15 C10.05 15 5.1 15 0 15 C0 10.05 0 5.1 0 0 Z " fill="#EFEFEF" transform="translate(135,210)"/>
<path d="M0 0 C4.95 0 9.9 0 15 0 C15 4.95 15 9.9 15 15 C10.05 15 5.1 15 0 15 C0 10.05 0 5.1 0 0 Z " fill="#EFEFEF" transform="translate(105,210)"/>
<path d="M0 0 C4.95 0 9.9 0 15 0 C15 4.95 15 9.9 15 15 C10.05 15 5.1 15 0 15 C0 10.05 0 5.1 0 0 Z " fill="#FFFFFF" transform="translate(30,210)"/>
<path d="M0 0 C4.95 0 9.9 0 15 0 C15 4.95 15 9.9 15 15 C10.05 15 5.1 15 0 15 C0 10.05 0 5.1 0 0 Z " fill="#EFEFEF" transform="translate(15,210)"/>
<path d="M0 0 C4.95 0 9.9 0 15 0 C15 4.95 15 9.9 15 15 C10.05 15 5.1 15 0 15 C0 10.05 0 5.1 0 0 Z " fill="#FFFFFF" transform="translate(0,210)"/>
<path d="M0 0 C4.95 0 9.9 0 15 0 C15 4.95 15 9.9 15 15 C10.05 15 5.1 15 0 15 C0 10.05 0 5.1 0 0 Z " fill="#FFFFFF" transform="translate(315,195)"/>
<path d="M0 0 C4.95 0 9.9 0 15 0 C15 4.95 15 9.9 15 15 C10.05 15 5.1 15 0 15 C0 10.05 0 5.1 0 0 Z " fill="#EFEFEF" transform="translate(300,195)"/>
<path d="M0 0 C4.95 0 9.9 0 15 0 C15 4.95 15 9.9 15 15 C10.05 15 5.1 15 0 15 C0 10.05 0 5.1 0 0 Z " fill="#EFEFEF" transform="translate(240,195)"/>
<path d="M0 0 C4.95 0 9.9 0 15 0 C15 4.95 15 9.9 15 15 C10.05 15 5.1 15 0 15 C0 10.05 0 5.1 0 0 Z " fill="#EFEFEF" transform="translate(210,195)"/>
<path d="M0 0 C4.95 0 9.9 0 15 0 C15 4.95 15 9.9 15 15 C10.05 15 5.1 15 0 15 C0 10.05 0 5.1 0 0 Z " fill="#FFFFFF" transform="translate(195,195)"/>
<path d="M0 0 C4.95 0 9.9 0 15 0 C15 4.95 15 9.9 15 15 C10.05 15 5.1 15 0 15 C0 10.05 0 5.1 0 0 Z " fill="#FFFFFF" transform="translate(165,195)"/>
<path d="M0 0 C4.95 0 9.9 0 15 0 C15 4.95 15 9.9 15 15 C10.05 15 5.1 15 0 15 C0 10.05 0 5.1 0 0 Z " fill="#FFFFFF" transform="translate(135,195)"/>
<path d="M0 0 C4.95 0 9.9 0 15 0 C15 4.95 15 9.9 15 15 C10.05 15 5.1 15 0 15 C0 10.05 0 5.1 0 0 Z " fill="#FFFFFF" transform="translate(105,195)"/>
<path d="M0 0 C4.95 0 9.9 0 15 0 C15 4.95 15 9.9 15 15 C10.05 15 5.1 15 0 15 C0 10.05 0 5.1 0 0 Z " fill="#EFEFEF" transform="translate(90,195)"/>
<path d="M0 0 C4.95 0 9.9 0 15 0 C15 4.95 15 9.9 15 15 C10.05 15 5.1 15 0 15 C0 10.05 0 5.1 0 0 Z " fill="#EFEFEF" transform="translate(30,195)"/>
<path d="M0 0 C4.95 0 9.9 0 15 0 C15 4.95 15 9.9 15 15 C10.05 15 5.1 15 0 15 C0 10.05 0 5.1 0 0 Z " fill="#FFFFFF" transform="translate(15,195)"/>
<path d="M0 0 C4.95 0 9.9 0 15 0 C15 4.95 15 9.9 15 15 C10.05 15 5.1 15 0 15 C0 10.05 0 5.1 0 0 Z " fill="#EFEFEF" transform="translate(0,195)"/>
<path d="M0 0 C4.95 0 9.9 0 15 0 C15 4.95 15 9.9 15 15 C10.05 15 5.1 15 0 15 C0 10.05 0 5.1 0 0 Z " fill="#FFFFFF" transform="translate(330,180)"/>
<path d="M0 0 C4.95 0 9.9 0 15 0 C15 4.95 15 9.9 15 15 C10.05 15 5.1 15 0 15 C0 10.05 0 5.1 0 0 Z " fill="#EFEFEF" transform="translate(315,180)"/>
<path d="M0 0 C4.95 0 9.9 0 15 0 C15 4.95 15 9.9 15 15 C10.05 15 5.1 15 0 15 C0 10.05 0 5.1 0 0 Z " fill="#FFFFFF" transform="translate(240,180)"/>
<path d="M0 0 C4.95 0 9.9 0 15 0 C15 4.95 15 9.9 15 15 C10.05 15 5.1 15 0 15 C0 10.05 0 5.1 0 0 Z " fill="#EFEFEF" transform="translate(225,180)"/>
<path d="M0 0 C4.95 0 9.9 0 15 0 C15 4.95 15 9.9 15 15 C10.05 15 5.1 15 0 15 C0 10.05 0 5.1 0 0 Z " fill="#EFEFEF" transform="translate(105,180)"/>
<path d="M0 0 C4.95 0 9.9 0 15 0 C15 4.95 15 9.9 15 15 C10.05 15 5.1 15 0 15 C0 10.05 0 5.1 0 0 Z " fill="#FFFFFF" transform="translate(30,180)"/>
<path d="M0 0 C4.95 0 9.9 0 15 0 C15 4.95 15 9.9 15 15 C10.05 15 5.1 15 0 15 C0 10.05 0 5.1 0 0 Z " fill="#EFEFEF" transform="translate(15,180)"/>
<path d="M0 0 C4.95 0 9.9 0 15 0 C15 4.95 15 9.9 15 15 C10.05 15 5.1 15 0 15 C0 10.05 0 5.1 0 0 Z " fill="#FFFFFF" transform="translate(0,180)"/>
<path d="M0 0 C4.95 0 9.9 0 15 0 C15 4.95 15 9.9 15 15 C10.05 15 5.1 15 0 15 C0 10.05 0 5.1 0 0 Z " fill="#FFFFFF" transform="translate(315,165)"/>
<path d="M0 0 C4.95 0 9.9 0 15 0 C15 4.95 15 9.9 15 15 C10.05 15 5.1 15 0 15 C0 10.05 0 5.1 0 0 Z " fill="#EFEFEF" transform="translate(300,165)"/>
<path d="M0 0 C4.95 0 9.9 0 15 0 C15 4.95 15 9.9 15 15 C10.05 15 5.1 15 0 15 C0 10.05 0 5.1 0 0 Z " fill="#FFFFFF" transform="translate(105,165)"/>
<path d="M0 0 C4.95 0 9.9 0 15 0 C15 4.95 15 9.9 15 15 C10.05 15 5.1 15 0 15 C0 10.05 0 5.1 0 0 Z " fill="#EFEFEF" transform="translate(90,165)"/>
<path d="M0 0 C4.95 0 9.9 0 15 0 C15 4.95 15 9.9 15 15 C10.05 15 5.1 15 0 15 C0 10.05 0 5.1 0 0 Z " fill="#EFEFEF" transform="translate(30,165)"/>
<path d="M0 0 C4.95 0 9.9 0 15 0 C15 4.95 15 9.9 15 15 C10.05 15 5.1 15 0 15 C0 10.05 0 5.1 0 0 Z " fill="#FFFFFF" transform="translate(15,165)"/>
<path d="M0 0 C4.95 0 9.9 0 15 0 C15 4.95 15 9.9 15 15 C10.05 15 5.1 15 0 15 C0 10.05 0 5.1 0 0 Z " fill="#EFEFEF" transform="translate(0,165)"/>
<path d="M0 0 C4.95 0 9.9 0 15 0 C15 4.95 15 9.9 15 15 C10.05 15 5.1 15 0 15 C0 10.05 0 5.1 0 0 Z " fill="#FFFFFF" transform="translate(330,150)"/>
<path d="M0 0 C4.95 0 9.9 0 15 0 C15 4.95 15 9.9 15 15 C10.05 15 5.1 15 0 15 C0 10.05 0 5.1 0 0 Z " fill="#EFEFEF" transform="translate(315,150)"/>
<path d="M0 0 C4.95 0 9.9 0 15 0 C15 4.95 15 9.9 15 15 C10.05 15 5.1 15 0 15 C0 10.05 0 5.1 0 0 Z " fill="#FFFFFF" transform="translate(240,150)"/>
<path d="M0 0 C4.95 0 9.9 0 15 0 C15 4.95 15 9.9 15 15 C10.05 15 5.1 15 0 15 C0 10.05 0 5.1 0 0 Z " fill="#EFEFEF" transform="translate(225,150)"/>
<path d="M0 0 C4.95 0 9.9 0 15 0 C15 4.95 15 9.9 15 15 C10.05 15 5.1 15 0 15 C0 10.05 0 5.1 0 0 Z " fill="#EFEFEF" transform="translate(105,150)"/>
<path d="M0 0 C4.95 0 9.9 0 15 0 C15 4.95 15 9.9 15 15 C10.05 15 5.1 15 0 15 C0 10.05 0 5.1 0 0 Z " fill="#FFFFFF" transform="translate(30,150)"/>
<path d="M0 0 C4.95 0 9.9 0 15 0 C15 4.95 15 9.9 15 15 C10.05 15 5.1 15 0 15 C0 10.05 0 5.1 0 0 Z " fill="#EFEFEF" transform="translate(15,150)"/>
<path d="M0 0 C4.95 0 9.9 0 15 0 C15 4.95 15 9.9 15 15 C10.05 15 5.1 15 0 15 C0 10.05 0 5.1 0 0 Z " fill="#FFFFFF" transform="translate(0,150)"/>
<path d="M0 0 C4.95 0 9.9 0 15 0 C15 4.95 15 9.9 15 15 C10.05 15 5.1 15 0 15 C0 10.05 0 5.1 0 0 Z " fill="#FFFFFF" transform="translate(315,135)"/>
<path d="M0 0 C4.95 0 9.9 0 15 0 C15 4.95 15 9.9 15 15 C10.05 15 5.1 15 0 15 C0 10.05 0 5.1 0 0 Z " fill="#EFEFEF" transform="translate(300,135)"/>
<path d="M0 0 C4.95 0 9.9 0 15 0 C15 4.95 15 9.9 15 15 C10.05 15 5.1 15 0 15 C0 10.05 0 5.1 0 0 Z " fill="#FFFFFF" transform="translate(255,135)"/>
<path d="M0 0 C4.95 0 9.9 0 15 0 C15 4.95 15 9.9 15 15 C10.05 15 5.1 15 0 15 C0 10.05 0 5.1 0 0 Z " fill="#EFEFEF" transform="translate(240,135)"/>
<path d="M0 0 C4.95 0 9.9 0 15 0 C15 4.95 15 9.9 15 15 C10.05 15 5.1 15 0 15 C0 10.05 0 5.1 0 0 Z " fill="#FFFFFF" transform="translate(105,135)"/>
<path d="M0 0 C4.95 0 9.9 0 15 0 C15 4.95 15 9.9 15 15 C10.05 15 5.1 15 0 15 C0 10.05 0 5.1 0 0 Z " fill="#EFEFEF" transform="translate(90,135)"/>
<path d="M0 0 C4.95 0 9.9 0 15 0 C15 4.95 15 9.9 15 15 C10.05 15 5.1 15 0 15 C0 10.05 0 5.1 0 0 Z " fill="#FFFFFF" transform="translate(75,135)"/>
<path d="M0 0 C4.95 0 9.9 0 15 0 C15 4.95 15 9.9 15 15 C10.05 15 5.1 15 0 15 C0 10.05 0 5.1 0 0 Z " fill="#EFEFEF" transform="translate(60,135)"/>
<path d="M0 0 C4.95 0 9.9 0 15 0 C15 4.95 15 9.9 15 15 C10.05 15 5.1 15 0 15 C0 10.05 0 5.1 0 0 Z " fill="#FFFFFF" transform="translate(45,135)"/>
<path d="M0 0 C4.95 0 9.9 0 15 0 C15 4.95 15 9.9 15 15 C10.05 15 5.1 15 0 15 C0 10.05 0 5.1 0 0 Z " fill="#EFEFEF" transform="translate(30,135)"/>
<path d="M0 0 C4.95 0 9.9 0 15 0 C15 4.95 15 9.9 15 15 C10.05 15 5.1 15 0 15 C0 10.05 0 5.1 0 0 Z " fill="#FFFFFF" transform="translate(15,135)"/>
<path d="M0 0 C4.95 0 9.9 0 15 0 C15 4.95 15 9.9 15 15 C10.05 15 5.1 15 0 15 C0 10.05 0 5.1 0 0 Z " fill="#EFEFEF" transform="translate(0,135)"/>
<path d="M0 0 C4.95 0 9.9 0 15 0 C15 4.95 15 9.9 15 15 C10.05 15 5.1 15 0 15 C0 10.05 0 5.1 0 0 Z " fill="#FFFFFF" transform="translate(330,120)"/>
<path d="M0 0 C4.95 0 9.9 0 15 0 C15 4.95 15 9.9 15 15 C10.05 15 5.1 15 0 15 C0 10.05 0 5.1 0 0 Z " fill="#EFEFEF" transform="translate(315,120)"/>
<path d="M0 0 C4.95 0 9.9 0 15 0 C15 4.95 15 9.9 15 15 C10.05 15 5.1 15 0 15 C0 10.05 0 5.1 0 0 Z " fill="#FFFFFF" transform="translate(240,120)"/>
<path d="M0 0 C4.95 0 9.9 0 15 0 C15 4.95 15 9.9 15 15 C10.05 15 5.1 15 0 15 C0 10.05 0 5.1 0 0 Z " fill="#EFEFEF" transform="translate(225,120)"/>
<path d="M0 0 C4.95 0 9.9 0 15 0 C15 4.95 15 9.9 15 15 C10.05 15 5.1 15 0 15 C0 10.05 0 5.1 0 0 Z " fill="#EFEFEF" transform="translate(105,120)"/>
<path d="M0 0 C4.95 0 9.9 0 15 0 C15 4.95 15 9.9 15 15 C10.05 15 5.1 15 0 15 C0 10.05 0 5.1 0 0 Z " fill="#FFFFFF" transform="translate(90,120)"/>
<path d="M0 0 C4.95 0 9.9 0 15 0 C15 4.95 15 9.9 15 15 C10.05 15 5.1 15 0 15 C0 10.05 0 5.1 0 0 Z " fill="#FFFFFF" transform="translate(30,120)"/>
<path d="M0 0 C4.95 0 9.9 0 15 0 C15 4.95 15 9.9 15 15 C10.05 15 5.1 15 0 15 C0 10.05 0 5.1 0 0 Z " fill="#EFEFEF" transform="translate(15,120)"/>
<path d="M0 0 C4.95 0 9.9 0 15 0 C15 4.95 15 9.9 15 15 C10.05 15 5.1 15 0 15 C0 10.05 0 5.1 0 0 Z " fill="#FFFFFF" transform="translate(0,120)"/>
<path d="M0 0 C4.95 0 9.9 0 15 0 C15 4.95 15 9.9 15 15 C10.05 15 5.1 15 0 15 C0 10.05 0 5.1 0 0 Z " fill="#FFFFFF" transform="translate(315,105)"/>
<path d="M0 0 C4.95 0 9.9 0 15 0 C15 4.95 15 9.9 15 15 C10.05 15 5.1 15 0 15 C0 10.05 0 5.1 0 0 Z " fill="#EFEFEF" transform="translate(300,105)"/>
<path d="M0 0 C4.95 0 9.9 0 15 0 C15 4.95 15 9.9 15 15 C10.05 15 5.1 15 0 15 C0 10.05 0 5.1 0 0 Z " fill="#EFEFEF" transform="translate(240,105)"/>
<path d="M0 0 C4.95 0 9.9 0 15 0 C15 4.95 15 9.9 15 15 C10.05 15 5.1 15 0 15 C0 10.05 0 5.1 0 0 Z " fill="#FFFFFF" transform="translate(105,105)"/>
<path d="M0 0 C4.95 0 9.9 0 15 0 C15 4.95 15 9.9 15 15 C10.05 15 5.1 15 0 15 C0 10.05 0 5.1 0 0 Z " fill="#EFEFEF" transform="translate(90,105)"/>
<path d="M0 0 C4.95 0 9.9 0 15 0 C15 4.95 15 9.9 15 15 C10.05 15 5.1 15 0 15 C0 10.05 0 5.1 0 0 Z " fill="#EFEFEF" transform="translate(30,105)"/>
<path d="M0 0 C4.95 0 9.9 0 15 0 C15 4.95 15 9.9 15 15 C10.05 15 5.1 15 0 15 C0 10.05 0 5.1 0 0 Z " fill="#FFFFFF" transform="translate(15,105)"/>
<path d="M0 0 C4.95 0 9.9 0 15 0 C15 4.95 15 9.9 15 15 C10.05 15 5.1 15 0 15 C0 10.05 0 5.1 0 0 Z " fill="#EFEFEF" transform="translate(0,105)"/>
<path d="M0 0 C4.95 0 9.9 0 15 0 C15 4.95 15 9.9 15 15 C10.05 15 5.1 15 0 15 C0 10.05 0 5.1 0 0 Z " fill="#FFFFFF" transform="translate(330,90)"/>
<path d="M0 0 C4.95 0 9.9 0 15 0 C15 4.95 15 9.9 15 15 C10.05 15 5.1 15 0 15 C0 10.05 0 5.1 0 0 Z " fill="#EFEFEF" transform="translate(315,90)"/>
<path d="M0 0 C4.95 0 9.9 0 15 0 C15 4.95 15 9.9 15 15 C10.05 15 5.1 15 0 15 C0 10.05 0 5.1 0 0 Z " fill="#FFFFFF" transform="translate(240,90)"/>
<path d="M0 0 C4.95 0 9.9 0 15 0 C15 4.95 15 9.9 15 15 C10.05 15 5.1 15 0 15 C0 10.05 0 5.1 0 0 Z " fill="#EFEFEF" transform="translate(105,90)"/>
<path d="M0 0 C4.95 0 9.9 0 15 0 C15 4.95 15 9.9 15 15 C10.05 15 5.1 15 0 15 C0 10.05 0 5.1 0 0 Z " fill="#FFFFFF" transform="translate(90,90)"/>
<path d="M0 0 C4.95 0 9.9 0 15 0 C15 4.95 15 9.9 15 15 C10.05 15 5.1 15 0 15 C0 10.05 0 5.1 0 0 Z " fill="#EFEFEF" transform="translate(15,90)"/>
<path d="M0 0 C4.95 0 9.9 0 15 0 C15 4.95 15 9.9 15 15 C10.05 15 5.1 15 0 15 C0 10.05 0 5.1 0 0 Z " fill="#FFFFFF" transform="translate(0,90)"/>
<path d="M0 0 C4.95 0 9.9 0 15 0 C15 4.95 15 9.9 15 15 C10.05 15 5.1 15 0 15 C0 10.05 0 5.1 0 0 Z " fill="#FFFFFF" transform="translate(315,75)"/>
<path d="M0 0 C4.95 0 9.9 0 15 0 C15 4.95 15 9.9 15 15 C10.05 15 5.1 15 0 15 C0 10.05 0 5.1 0 0 Z " fill="#EFEFEF" transform="translate(300,75)"/>
<path d="M0 0 C4.95 0 9.9 0 15 0 C15 4.95 15 9.9 15 15 C10.05 15 5.1 15 0 15 C0 10.05 0 5.1 0 0 Z " fill="#FFFFFF" transform="translate(225,75)"/>
<path d="M0 0 C4.95 0 9.9 0 15 0 C15 4.95 15 9.9 15 15 C10.05 15 5.1 15 0 15 C0 10.05 0 5.1 0 0 Z " fill="#FFFFFF" transform="translate(195,75)"/>
<path d="M0 0 C4.95 0 9.9 0 15 0 C15 4.95 15 9.9 15 15 C10.05 15 5.1 15 0 15 C0 10.05 0 5.1 0 0 Z " fill="#EFEFEF" transform="translate(180,75)"/>
<path d="M0 0 C4.95 0 9.9 0 15 0 C15 4.95 15 9.9 15 15 C10.05 15 5.1 15 0 15 C0 10.05 0 5.1 0 0 Z " fill="#FFFFFF" transform="translate(165,75)"/>
<path d="M0 0 C4.95 0 9.9 0 15 0 C15 4.95 15 9.9 15 15 C10.05 15 5.1 15 0 15 C0 10.05 0 5.1 0 0 Z " fill="#EFEFEF" transform="translate(150,75)"/>
<path d="M0 0 C4.95 0 9.9 0 15 0 C15 4.95 15 9.9 15 15 C10.05 15 5.1 15 0 15 C0 10.05 0 5.1 0 0 Z " fill="#EFEFEF" transform="translate(120,75)"/>
<path d="M0 0 C4.95 0 9.9 0 15 0 C15 4.95 15 9.9 15 15 C10.05 15 5.1 15 0 15 C0 10.05 0 5.1 0 0 Z " fill="#FFFFFF" transform="translate(105,75)"/>
<path d="M0 0 C4.95 0 9.9 0 15 0 C15 4.95 15 9.9 15 15 C10.05 15 5.1 15 0 15 C0 10.05 0 5.1 0 0 Z " fill="#EFEFEF" transform="translate(90,75)"/>
<path d="M0 0 C4.95 0 9.9 0 15 0 C15 4.95 15 9.9 15 15 C10.05 15 5.1 15 0 15 C0 10.05 0 5.1 0 0 Z " fill="#EFEFEF" transform="translate(30,75)"/>
<path d="M0 0 C4.95 0 9.9 0 15 0 C15 4.95 15 9.9 15 15 C10.05 15 5.1 15 0 15 C0 10.05 0 5.1 0 0 Z " fill="#FFFFFF" transform="translate(15,75)"/>
<path d="M0 0 C4.95 0 9.9 0 15 0 C15 4.95 15 9.9 15 15 C10.05 15 5.1 15 0 15 C0 10.05 0 5.1 0 0 Z " fill="#EFEFEF" transform="translate(0,75)"/>
<path d="M0 0 C4.95 0 9.9 0 15 0 C15 4.95 15 9.9 15 15 C10.05 15 5.1 15 0 15 C0 10.05 0 5.1 0 0 Z " fill="#FFFFFF" transform="translate(330,60)"/>
<path d="M0 0 C4.95 0 9.9 0 15 0 C15 4.95 15 9.9 15 15 C10.05 15 5.1 15 0 15 C0 10.05 0 5.1 0 0 Z " fill="#EFEFEF" transform="translate(315,60)"/>
<path d="M0 0 C4.95 0 9.9 0 15 0 C15 4.95 15 9.9 15 15 C10.05 15 5.1 15 0 15 C0 10.05 0 5.1 0 0 Z " fill="#FFFFFF" transform="translate(240,60)"/>
<path d="M0 0 C4.95 0 9.9 0 15 0 C15 4.95 15 9.9 15 15 C10.05 15 5.1 15 0 15 C0 10.05 0 5.1 0 0 Z " fill="#FFFFFF" transform="translate(210,60)"/>
<path d="M0 0 C4.95 0 9.9 0 15 0 C15 4.95 15 9.9 15 15 C10.05 15 5.1 15 0 15 C0 10.05 0 5.1 0 0 Z " fill="#FFFFFF" transform="translate(180,60)"/>
<path d="M0 0 C4.95 0 9.9 0 15 0 C15 4.95 15 9.9 15 15 C10.05 15 5.1 15 0 15 C0 10.05 0 5.1 0 0 Z " fill="#EFEFEF" transform="translate(165,60)"/>
<path d="M0 0 C4.95 0 9.9 0 15 0 C15 4.95 15 9.9 15 15 C10.05 15 5.1 15 0 15 C0 10.05 0 5.1 0 0 Z " fill="#FFFFFF" transform="translate(150,60)"/>
<path d="M0 0 C4.95 0 9.9 0 15 0 C15 4.95 15 9.9 15 15 C10.05 15 5.1 15 0 15 C0 10.05 0 5.1 0 0 Z " fill="#EFEFEF" transform="translate(135,60)"/>
<path d="M0 0 C4.95 0 9.9 0 15 0 C15 4.95 15 9.9 15 15 C10.05 15 5.1 15 0 15 C0 10.05 0 5.1 0 0 Z " fill="#FFFFFF" transform="translate(120,60)"/>
<path d="M0 0 C4.95 0 9.9 0 15 0 C15 4.95 15 9.9 15 15 C10.05 15 5.1 15 0 15 C0 10.05 0 5.1 0 0 Z " fill="#EFEFEF" transform="translate(105,60)"/>
<path d="M0 0 C4.95 0 9.9 0 15 0 C15 4.95 15 9.9 15 15 C10.05 15 5.1 15 0 15 C0 10.05 0 5.1 0 0 Z " fill="#EFEFEF" transform="translate(15,60)"/>
<path d="M0 0 C4.95 0 9.9 0 15 0 C15 4.95 15 9.9 15 15 C10.05 15 5.1 15 0 15 C0 10.05 0 5.1 0 0 Z " fill="#FFFFFF" transform="translate(0,60)"/>
<path d="M0 0 C4.95 0 9.9 0 15 0 C15 4.95 15 9.9 15 15 C10.05 15 5.1 15 0 15 C0 10.05 0 5.1 0 0 Z " fill="#EFEFEF" transform="translate(330,45)"/>
<path d="M0 0 C4.95 0 9.9 0 15 0 C15 4.95 15 9.9 15 15 C10.05 15 5.1 15 0 15 C0 10.05 0 5.1 0 0 Z " fill="#FFFFFF" transform="translate(315,45)"/>
<path d="M0 0 C4.95 0 9.9 0 15 0 C15 4.95 15 9.9 15 15 C10.05 15 5.1 15 0 15 C0 10.05 0 5.1 0 0 Z " fill="#EFEFEF" transform="translate(300,45)"/>
<path d="M0 0 C4.95 0 9.9 0 15 0 C15 4.95 15 9.9 15 15 C10.05 15 5.1 15 0 15 C0 10.05 0 5.1 0 0 Z " fill="#FFFFFF" transform="translate(165,45)"/>
<path d="M0 0 C4.95 0 9.9 0 15 0 C15 4.95 15 9.9 15 15 C10.05 15 5.1 15 0 15 C0 10.05 0 5.1 0 0 Z " fill="#EFEFEF" transform="translate(30,45)"/>
<path d="M0 0 C4.95 0 9.9 0 15 0 C15 4.95 15 9.9 15 15 C10.05 15 5.1 15 0 15 C0 10.05 0 5.1 0 0 Z " fill="#FFFFFF" transform="translate(15,45)"/>
<path d="M0 0 C4.95 0 9.9 0 15 0 C15 4.95 15 9.9 15 15 C10.05 15 5.1 15 0 15 C0 10.05 0 5.1 0 0 Z " fill="#EFEFEF" transform="translate(0,45)"/>
<path d="M0 0 C4.95 0 9.9 0 15 0 C15 4.95 15 9.9 15 15 C10.05 15 5.1 15 0 15 C0 10.05 0 5.1 0 0 Z " fill="#FFFFFF" transform="translate(330,30)"/>
<path d="M0 0 C4.95 0 9.9 0 15 0 C15 4.95 15 9.9 15 15 C10.05 15 5.1 15 0 15 C0 10.05 0 5.1 0 0 Z " fill="#EFEFEF" transform="translate(315,30)"/>
<path d="M0 0 C4.95 0 9.9 0 15 0 C15 4.95 15 9.9 15 15 C10.05 15 5.1 15 0 15 C0 10.05 0 5.1 0 0 Z " fill="#FFFFFF" transform="translate(30,30)"/>
<path d="M0 0 C4.95 0 9.9 0 15 0 C15 4.95 15 9.9 15 15 C10.05 15 5.1 15 0 15 C0 10.05 0 5.1 0 0 Z " fill="#EFEFEF" transform="translate(15,30)"/>
<path d="M0 0 C4.95 0 9.9 0 15 0 C15 4.95 15 9.9 15 15 C10.05 15 5.1 15 0 15 C0 10.05 0 5.1 0 0 Z " fill="#FFFFFF" transform="translate(0,30)"/>
<path d="M0 0 C4.95 0 9.9 0 15 0 C15 4.95 15 9.9 15 15 C10.05 15 5.1 15 0 15 C0 10.05 0 5.1 0 0 Z " fill="#EFEFEF" transform="translate(330,15)"/>
<path d="M0 0 C4.95 0 9.9 0 15 0 C15 4.95 15 9.9 15 15 C10.05 15 5.1 15 0 15 C0 10.05 0 5.1 0 0 Z " fill="#FFFFFF" transform="translate(315,15)"/>
<path d="M0 0 C4.95 0 9.9 0 15 0 C15 4.95 15 9.9 15 15 C10.05 15 5.1 15 0 15 C0 10.05 0 5.1 0 0 Z " fill="#EFEFEF" transform="translate(300,15)"/>
<path d="M0 0 C4.95 0 9.9 0 15 0 C15 4.95 15 9.9 15 15 C10.05 15 5.1 15 0 15 C0 10.05 0 5.1 0 0 Z " fill="#FFFFFF" transform="translate(165,15)"/>
<path d="M0 0 C4.95 0 9.9 0 15 0 C15 4.95 15 9.9 15 15 C10.05 15 5.1 15 0 15 C0 10.05 0 5.1 0 0 Z " fill="#EFEFEF" transform="translate(30,15)"/>
<path d="M0 0 C4.95 0 9.9 0 15 0 C15 4.95 15 9.9 15 15 C10.05 15 5.1 15 0 15 C0 10.05 0 5.1 0 0 Z " fill="#FFFFFF" transform="translate(15,15)"/>
<path d="M0 0 C4.95 0 9.9 0 15 0 C15 4.95 15 9.9 15 15 C10.05 15 5.1 15 0 15 C0 10.05 0 5.1 0 0 Z " fill="#EFEFEF" transform="translate(0,15)"/>
<path d="M0 0 C4.95 0 9.9 0 15 0 C15 4.95 15 9.9 15 15 C10.05 15 5.1 15 0 15 C0 10.05 0 5.1 0 0 Z " fill="#EFEFEF" transform="translate(315,0)"/>
<path d="M0 0 C4.95 0 9.9 0 15 0 C15 4.95 15 9.9 15 15 C10.05 15 5.1 15 0 15 C0 10.05 0 5.1 0 0 Z " fill="#FFFFFF" transform="translate(300,0)"/>
<path d="M0 0 C4.95 0 9.9 0 15 0 C15 4.95 15 9.9 15 15 C10.05 15 5.1 15 0 15 C0 10.05 0 5.1 0 0 Z " fill="#EFEFEF" transform="translate(285,0)"/>
<path d="M0 0 C4.95 0 9.9 0 15 0 C15 4.95 15 9.9 15 15 C10.05 15 5.1 15 0 15 C0 10.05 0 5.1 0 0 Z " fill="#EFEFEF" transform="translate(255,0)"/>
<path d="M0 0 C4.95 0 9.9 0 15 0 C15 4.95 15 9.9 15 15 C10.05 15 5.1 15 0 15 C0 10.05 0 5.1 0 0 Z " fill="#EFEFEF" transform="translate(225,0)"/>
<path d="M0 0 C4.95 0 9.9 0 15 0 C15 4.95 15 9.9 15 15 C10.05 15 5.1 15 0 15 C0 10.05 0 5.1 0 0 Z " fill="#EFEFEF" transform="translate(195,0)"/>
<path d="M0 0 C4.95 0 9.9 0 15 0 C15 4.95 15 9.9 15 15 C10.05 15 5.1 15 0 15 C0 10.05 0 5.1 0 0 Z " fill="#FFFFFF" transform="translate(180,0)"/>
<path d="M0 0 C4.95 0 9.9 0 15 0 C15 4.95 15 9.9 15 15 C10.05 15 5.1 15 0 15 C0 10.05 0 5.1 0 0 Z " fill="#EFEFEF" transform="translate(165,0)"/>
<path d="M0 0 C4.95 0 9.9 0 15 0 C15 4.95 15 9.9 15 15 C10.05 15 5.1 15 0 15 C0 10.05 0 5.1 0 0 Z " fill="#FFFFFF" transform="translate(150,0)"/>
<path d="M0 0 C4.95 0 9.9 0 15 0 C15 4.95 15 9.9 15 15 C10.05 15 5.1 15 0 15 C0 10.05 0 5.1 0 0 Z " fill="#EFEFEF" transform="translate(135,0)"/>
<path d="M0 0 C4.95 0 9.9 0 15 0 C15 4.95 15 9.9 15 15 C10.05 15 5.1 15 0 15 C0 10.05 0 5.1 0 0 Z " fill="#EFEFEF" transform="translate(105,0)"/>
<path d="M0 0 C4.95 0 9.9 0 15 0 C15 4.95 15 9.9 15 15 C10.05 15 5.1 15 0 15 C0 10.05 0 5.1 0 0 Z " fill="#EFEFEF" transform="translate(75,0)"/>
<path d="M0 0 C4.95 0 9.9 0 15 0 C15 4.95 15 9.9 15 15 C10.05 15 5.1 15 0 15 C0 10.05 0 5.1 0 0 Z " fill="#EFEFEF" transform="translate(45,0)"/>
<path d="M0 0 C4.95 0 9.9 0 15 0 C15 4.95 15 9.9 15 15 C10.05 15 5.1 15 0 15 C0 10.05 0 5.1 0 0 Z " fill="#FFFFFF" transform="translate(30,0)"/>
<path d="M0 0 C4.95 0 9.9 0 15 0 C15 4.95 15 9.9 15 15 C10.05 15 5.1 15 0 15 C0 10.05 0 5.1 0 0 Z " fill="#FFFFFF" transform="translate(0,0)"/>
<path d="M0 0 C4.62 0 9.24 0 14 0 C14 4.95 14 9.9 14 15 C9.05 15 4.1 15 -1 15 C-1.125 3.375 -1.125 3.375 0 0 Z " fill="#EFEFEF" transform="translate(316,330)"/>
<path d="M0 0 C1.98 0 3.96 0 6 0 C6 3.3 6 6.6 6 10 C18.87 10 31.74 10 45 10 C45 11.65 45 13.3 45 15 C40.05 15 35.1 15 30 15 C30 14.01 30 13.02 30 12 C25.05 11.67 20.1 11.34 15 11 C15 12.32 15 13.64 15 15 C10.05 15 5.1 15 0 15 C0 10.05 0 5.1 0 0 Z " fill="#F2E5E5" transform="translate(255,120)"/>
<path d="M0 0 C4.95 0 9.9 0 15 0 C15 4.95 15 9.9 15 15 C10.38 15 5.76 15 1 15 C0.67 10.05 0.34 5.1 0 0 Z " fill="#EFEFEF" transform="translate(315,270)"/>
<path d="M0 0 C4.62 0 9.24 0 14 0 C14 4.95 14 9.9 14 15 C9.38 15 4.76 15 0 15 C0 10.05 0 5.1 0 0 Z " fill="#EFEFEF" transform="translate(316,300)"/>
<path d="M0 0 C0.66 0.66 1.32 1.32 2 2 C4.56916657 2.30599063 7.04758384 2.51087087 9.625 2.625 C10.68460938 2.68300781 10.68460938 2.68300781 11.765625 2.7421875 C13.50998524 2.83647724 15.25495691 2.91932891 17 3 C16.01 3.33 15.02 3.66 14 4 C14 7.63 14 11.26 14 15 C9.05 15 4.1 15 -1 15 C-1.09765625 4.16015625 -1.09765625 4.16015625 -1 1 C-0.67 0.67 -0.34 0.34 0 0 Z " fill="#FFFFFF" transform="translate(31,330)"/>
<path d="M0 0 C6.6 0 13.2 0 20 0 C19.01 0.33 18.02 0.66 17 1 C17 4.63 17 8.26 17 12 C12.05 12 7.1 12 2 12 C2 8.37 2 4.74 2 1 C1.34 0.67 0.68 0.34 0 0 Z " fill="#FFFFFF" transform="translate(268,333)"/>
<path d="M0 0 C6.6 0 13.2 0 20 0 C19.01 0.33 18.02 0.66 17 1 C17 4.63 17 8.26 17 12 C12.05 12 7.1 12 2 12 C2 8.37 2 4.74 2 1 C1.34 0.67 0.68 0.34 0 0 Z " fill="#FFFFFF" transform="translate(238,333)"/>
<path d="M0 0 C6.6 0 13.2 0 20 0 C19.01 0.33 18.02 0.66 17 1 C17 4.63 17 8.26 17 12 C12.05 12 7.1 12 2 12 C2 8.37 2 4.74 2 1 C1.34 0.67 0.68 0.34 0 0 Z " fill="#FFFFFF" transform="translate(208,333)"/>
<path d="M0 0 C6.6 0 13.2 0 20 0 C19.01 0.33 18.02 0.66 17 1 C17 4.63 17 8.26 17 12 C12.05 12 7.1 12 2 12 C2 8.37 2 4.74 2 1 C1.34 0.67 0.68 0.34 0 0 Z " fill="#FFFFFF" transform="translate(178,333)"/>
<path d="M0 0 C6.6 0 13.2 0 20 0 C19.01 0.33 18.02 0.66 17 1 C17 4.63 17 8.26 17 12 C12.05 12 7.1 12 2 12 C2 8.37 2 4.74 2 1 C1.34 0.67 0.68 0.34 0 0 Z " fill="#FFFFFF" transform="translate(148,333)"/>
<path d="M0 0 C6.6 0 13.2 0 20 0 C19.01 0.33 18.02 0.66 17 1 C17 4.63 17 8.26 17 12 C12.05 12 7.1 12 2 12 C2 8.37 2 4.74 2 1 C1.34 0.67 0.68 0.34 0 0 Z " fill="#FFFFFF" transform="translate(118,333)"/>
<path d="M0 0 C6.6 0 13.2 0 20 0 C19.01 0.33 18.02 0.66 17 1 C17 4.63 17 8.26 17 12 C12.05 12 7.1 12 2 12 C2 8.37 2 4.74 2 1 C1.34 0.67 0.68 0.34 0 0 Z " fill="#FFFFFF" transform="translate(88,333)"/>
<path d="M0 0 C6.6 0 13.2 0 20 0 C19.01 0.33 18.02 0.66 17 1 C17 4.63 17 8.26 17 12 C12.05 12 7.1 12 2 12 C2 8.37 2 4.74 2 1 C1.34 0.67 0.68 0.34 0 0 Z " fill="#FFFFFF" transform="translate(58,333)"/>
<path d="M0 0 C0 2.97 0 5.94 0 9 C4.29 9 8.58 9 13 9 C13 9.33 13 9.66 13 10 C11.02 10 9.04 10 7 10 C7 11.98 7 13.96 7 16 C2.05 16 -2.9 16 -8 16 C-8 11.05 -8 6.1 -8 1 C-1 0 -1 0 0 0 Z " fill="#FFFFFF" transform="translate(128,179)"/>
<path d="M0 0 C0.87785156 -0.00257813 1.75570312 -0.00515625 2.66015625 -0.0078125 C4.9375 0.125 4.9375 0.125 6.9375 1.125 C6.9375 4.755 6.9375 8.385 6.9375 12.125 C1.9875 12.125 -2.9625 12.125 -8.0625 12.125 C-8.0625 8.495 -8.0625 4.865 -8.0625 1.125 C-5.09900719 0.13716906 -3.0912337 -0.00910525 0 0 Z " fill="#EFEFEF" transform="translate(173.0625,332.875)"/>
<path d="M0 0 C0.87785156 -0.00257813 1.75570312 -0.00515625 2.66015625 -0.0078125 C4.9375 0.125 4.9375 0.125 6.9375 1.125 C6.9375 4.755 6.9375 8.385 6.9375 12.125 C1.9875 12.125 -2.9625 12.125 -8.0625 12.125 C-8.0625 8.495 -8.0625 4.865 -8.0625 1.125 C-5.09900719 0.13716906 -3.0912337 -0.00910525 0 0 Z " fill="#EFEFEF" transform="translate(143.0625,332.875)"/>
<path d="M0 0 C0.87785156 -0.00257813 1.75570312 -0.00515625 2.66015625 -0.0078125 C4.9375 0.125 4.9375 0.125 6.9375 1.125 C6.9375 4.755 6.9375 8.385 6.9375 12.125 C1.9875 12.125 -2.9625 12.125 -8.0625 12.125 C-8.0625 8.495 -8.0625 4.865 -8.0625 1.125 C-5.09900719 0.13716906 -3.0912337 -0.00910525 0 0 Z " fill="#EFEFEF" transform="translate(113.0625,332.875)"/>
<path d="M0 0 C0.87785156 -0.00257813 1.75570312 -0.00515625 2.66015625 -0.0078125 C4.9375 0.125 4.9375 0.125 6.9375 1.125 C6.9375 4.755 6.9375 8.385 6.9375 12.125 C1.9875 12.125 -2.9625 12.125 -8.0625 12.125 C-8.0625 8.495 -8.0625 4.865 -8.0625 1.125 C-5.09900719 0.13716906 -3.0912337 -0.00910525 0 0 Z " fill="#EFEFEF" transform="translate(83.0625,332.875)"/>
<path d="M0 0 C0.87785156 -0.00257813 1.75570312 -0.00515625 2.66015625 -0.0078125 C4.9375 0.125 4.9375 0.125 6.9375 1.125 C6.9375 4.755 6.9375 8.385 6.9375 12.125 C1.9875 12.125 -2.9625 12.125 -8.0625 12.125 C-8.0625 8.495 -8.0625 4.865 -8.0625 1.125 C-5.09900719 0.13716906 -3.0912337 -0.00910525 0 0 Z " fill="#EFEFEF" transform="translate(53.0625,332.875)"/>
<path d="M0 0 C0.33 0 0.66 0 1 0 C1 12.54 1 25.08 1 38 C3.97 38 6.94 38 10 38 C10 39.32 10 40.64 10 42 C5.05 42 0.1 42 -5 42 C-5 37.05 -5 32.1 -5 27 C-3.35 27 -1.7 27 0 27 C0 18.09 0 9.18 0 0 Z " fill="#F1DFDF" transform="translate(185,228)"/>
<path d="M0 0 C4.95 0 9.9 0 15 0 C15 0.66 15 1.32 15 2 C12.36 2.33 9.72 2.66 7 3 C6.67 15.54 6.34 28.08 6 41 C5.67 41 5.34 41 5 41 C5 32.42 5 23.84 5 15 C3.35 15 1.7 15 0 15 C0 10.05 0 5.1 0 0 Z " fill="#F1DDDD" transform="translate(180,15)"/>
<path d="M0 0 C9.57 0 19.14 0 29 0 C29 0.33 29 0.66 29 1 C27.02 1 25.04 1 23 1 C23 2.98 23 4.96 23 7 C18.05 7 13.1 7 8 7 C8 5.02 8 3.04 8 1 C5.36 1 2.72 1 0 1 C0 0.67 0 0.34 0 0 Z " fill="#FFFFFF" transform="translate(172,188)"/>
<path d="M0 0 C9.57 0 19.14 0 29 0 C29 0.33 29 0.66 29 1 C27.02 1 25.04 1 23 1 C23 2.98 23 4.96 23 7 C18.05 7 13.1 7 8 7 C8 5.02 8 3.04 8 1 C5.36 1 2.72 1 0 1 C0 0.67 0 0.34 0 0 Z " fill="#FFFFFF" transform="translate(142,188)"/>
<path d="M0 0 C4.95 0 9.9 0 15 0 C15 0.99 15 1.98 15 3 C12.36 3.33 9.72 3.66 7 4 C6.67 7.63 6.34 11.26 6 15 C4.02 15 2.04 15 0 15 C0 10.05 0 5.1 0 0 Z " fill="#F0EDED" transform="translate(255,150)"/>
<path d="M0 0 C2.31 0 4.62 0 7 0 C7 4.95 7 9.9 7 15 C4.69 15 2.38 15 0 15 C0 10.05 0 5.1 0 0 Z " fill="#EFEFEF" transform="translate(120,165)"/>
<path d="M0 0 C2.31 0 4.62 0 7 0 C7 4.95 7 9.9 7 15 C4.69 15 2.38 15 0 15 C0 10.05 0 5.1 0 0 Z " fill="#EFEFEF" transform="translate(120,135)"/>
<path d="M0 0 C2.31 0 4.62 0 7 0 C7 4.95 7 9.9 7 15 C4.69 15 2.38 15 0 15 C0 10.05 0 5.1 0 0 Z " fill="#EFEFEF" transform="translate(120,105)"/>
<path d="M0 0 C4.95 0 9.9 0 15 0 C15 2.31 15 4.62 15 7 C10.05 7 5.1 7 0 7 C0 4.69 0 2.38 0 0 Z " fill="#EFEFEF" transform="translate(195,90)"/>
<path d="M0 0 C4.95 0 9.9 0 15 0 C15 2.31 15 4.62 15 7 C10.05 7 5.1 7 0 7 C0 4.69 0 2.38 0 0 Z " fill="#FFFFFF" transform="translate(180,90)"/>
<path d="M0 0 C4.95 0 9.9 0 15 0 C15 2.31 15 4.62 15 7 C10.05 7 5.1 7 0 7 C0 4.69 0 2.38 0 0 Z " fill="#EFEFEF" transform="translate(165,90)"/>
<path d="M0 0 C4.95 0 9.9 0 15 0 C15 2.31 15 4.62 15 7 C10.05 7 5.1 7 0 7 C0 4.69 0 2.38 0 0 Z " fill="#FFFFFF" transform="translate(150,90)"/>
<path d="M0 0 C4.95 0 9.9 0 15 0 C15 2.31 15 4.62 15 7 C10.05 7 5.1 7 0 7 C0 4.69 0 2.38 0 0 Z " fill="#EFEFEF" transform="translate(135,90)"/>
<path d="M0 0 C6.875 0.875 6.875 0.875 8 2 C8.09823996 3.47648876 8.12973519 4.95775417 8.125 6.4375 C8.12757812 7.24058594 8.13015625 8.04367187 8.1328125 8.87109375 C8 11 8 11 7 13 C4.67843403 13.40729228 2.3431213 13.74438677 0 14 C0 9.38 0 4.76 0 0 Z " fill="#071D78" transform="translate(90,297)"/>
<path d="M0 0 C0.99 0 1.98 0 3 0 C3 5.94 3 11.88 3 18 C-2.94 18 -8.88 18 -15 18 C-15 17.01 -15 16.02 -15 15 C-10.05 15 -5.1 15 0 15 C0 10.05 0 5.1 0 0 Z " fill="#F0F0F0" transform="translate(345,330)"/>
<path d="M0 0 C1.98 0 3.96 0 6 0 C6.05383848 2.45862401 6.09359038 4.9160755 6.125 7.375 C6.14175781 8.07367188 6.15851563 8.77234375 6.17578125 9.4921875 C6.19344267 11.32897486 6.10303261 13.16601963 6 15 C5.34 15.66 4.68 16.32 4 17 C4 16.34 4 15.68 4 15 C2.68 15 1.36 15 0 15 C0 10.05 0 5.1 0 0 Z " fill="#FCFCFC" transform="translate(255,195)"/>
<path d="M0 0 C1.98 0 3.96 0 6 0 C6.05383848 2.45862401 6.09359038 4.9160755 6.125 7.375 C6.14175781 8.07367188 6.15851563 8.77234375 6.17578125 9.4921875 C6.19344267 11.32897486 6.10303261 13.16601963 6 15 C5.34 15.66 4.68 16.32 4 17 C4 16.34 4 15.68 4 15 C2.68 15 1.36 15 0 15 C0 10.05 0 5.1 0 0 Z " fill="#FCFCFC" transform="translate(255,105)"/>
<path d="M0 0 C0 1.98 0 3.96 0 6 C-4.95 6 -9.9 6 -15 6 C-15 4.02 -15 2.04 -15 0 C-9.77254141 -1.2063366 -5.23471686 -0.75612577 0 0 Z " fill="#EFEFEF" transform="translate(210,189)"/>
<path d="M0 0 C0 1.98 0 3.96 0 6 C-4.95 6 -9.9 6 -15 6 C-15 4.02 -15 2.04 -15 0 C-9.77254141 -1.2063366 -5.23471686 -0.75612577 0 0 Z " fill="#EFEFEF" transform="translate(180,189)"/>
<path d="M0 0 C1.98 0 3.96 0 6 0 C6 4.95 6 9.9 6 15 C4.02 15 2.04 15 0 15 C0 10.05 0 5.1 0 0 Z " fill="#F1EBEB" transform="translate(255,210)"/>
<path d="M0 0 C1.98 0 3.96 0 6 0 C6 4.95 6 9.9 6 15 C4.02 15 2.04 15 0 15 C0 10.05 0 5.1 0 0 Z " fill="#F1EBEB" transform="translate(255,180)"/>
<path d="M0 0 C1.98 0 3.96 0 6 0 C6 4.95 6 9.9 6 15 C4.02 15 2.04 15 0 15 C0 10.05 0 5.1 0 0 Z " fill="#F1EBEB" transform="translate(255,90)"/>
<path d="M0 0 C1.98 0 3.96 0 6 0 C6 4.95 6 9.9 6 15 C4.02 15 2.04 15 0 15 C0 10.05 0 5.1 0 0 Z " fill="#F1EBEB" transform="translate(255,60)"/>
<path d="M0 0 C4.95 0 9.9 0 15 0 C15 0.99 15 1.98 15 3 C9.06 3.495 9.06 3.495 3 4 C3 7.3 3 10.6 3 14 C2.01 14.33 1.02 14.66 0 15 C0 10.05 0 5.1 0 0 Z " fill="#EFEFEF" transform="translate(45,150)"/>
<path d="M0 0 C0.66 0 1.32 0 2 0 C2 4.95 2 9.9 2 15 C-2.95 15 -7.9 15 -13 15 C-13 13.68 -13 12.36 -13 11 C-8.71 11 -4.42 11 0 11 C0 7.37 0 3.74 0 0 Z " fill="#EFEFEF" transform="translate(163,255)"/>
<path d="M0 0 C4.95 0 9.9 0 15 0 C15 0.99 15 1.98 15 3 C18.63 3 22.26 3 26 3 C26 3.33 26 3.66 26 4 C14.12 4 2.24 4 -10 4 C-10 3.67 -10 3.34 -10 3 C-6.7 3 -3.4 3 0 3 C0 2.01 0 1.02 0 0 Z " fill="#FFFFFF" transform="translate(60,150)"/>
<path d="M0 0 C0.66 0 1.32 0 2 0 C2 4.95 2 9.9 2 15 C-2.95 15 -7.9 15 -13 15 C-13 13.68 -13 12.36 -13 11 C-8.71 11 -4.42 11 0 11 C0 7.37 0 3.74 0 0 Z " fill="#EFEFEF" transform="translate(163,45)"/>
<path d="M0 0 C1.65 0 3.3 0 5 0 C5 4.95 5 9.9 5 15 C3.35 15 1.7 15 0 15 C0 10.05 0 5.1 0 0 Z " fill="#FFFFFF" transform="translate(180,240)"/>
<path d="M0 0 C1.65 0 3.3 0 5 0 C5 4.95 5 9.9 5 15 C3.35 15 1.7 15 0 15 C0 10.05 0 5.1 0 0 Z " fill="#FFFFFF" transform="translate(180,30)"/>
<path d="M0 0 C4.95 0 9.9 0 15 0 C15 4.95 15 9.9 15 15 C14.34 15 13.68 15 13 15 C13 11.37 13 7.74 13 4 C8.71 3.67 4.42 3.34 0 3 C0 2.01 0 1.02 0 0 Z " fill="#EFEFEF" transform="translate(75,150)"/>
<path d="M0 0 C4.95 0 9.9 0 15 0 C15 0.66 15 1.32 15 2 C19.62 2 24.24 2 29 2 C29 2.33 29 2.66 29 3 C16.46 3 3.92 3 -9 3 C-9 2.67 -9 2.34 -9 2 C-6.03 2 -3.06 2 0 2 C0 1.34 0 0.68 0 0 Z " fill="#FFFFFF" transform="translate(195,225)"/>
<path d="M0 0 C0.33 0 0.66 0 1 0 C1 3.96 1 7.92 1 12 C1.66 12 2.32 12 3 12 C3 16.95 3 21.9 3 27 C2.34 27 1.68 27 1 27 C1 30.63 1 34.26 1 38 C0.67 38 0.34 38 0 38 C0 25.46 0 12.92 0 0 Z " fill="#FFFFFF" transform="translate(162,18)"/>
<path d="M0 0 C5.28 0 10.56 0 16 0 C15.67 1.32 15.34 2.64 15 4 C10.05 4 5.1 4 0 4 C0 2.68 0 1.36 0 0 Z " fill="#FFFFFF" transform="translate(270,131)"/>
<path d="M0 0 C5.28 0 10.56 0 16 0 C15.67 1.32 15.34 2.64 15 4 C10.05 4 5.1 4 0 4 C0 2.68 0 1.36 0 0 Z " fill="#FFFFFF" transform="translate(60,131)"/>
<path d="M0 0 C4.95 0 9.9 0 15 0 C15.33 0.66 15.66 1.32 16 2 C15.67 2.66 15.34 3.32 15 4 C10.05 4 5.1 4 0 4 C0 2.68 0 1.36 0 0 Z " fill="#FFFFFF" transform="translate(135,56)"/>
<path d="M0 0 C4.95 0 9.9 0 15 0 C15 1.32 15 2.64 15 4 C10.05 4 5.1 4 0 4 C0 2.68 0 1.36 0 0 Z " fill="#EFEFEF" transform="translate(285,270)"/>
<path d="M0 0 C4.95 0 9.9 0 15 0 C15 1.32 15 2.64 15 4 C10.05 4 5.1 4 0 4 C0 2.68 0 1.36 0 0 Z " fill="#EFEFEF" transform="translate(255,270)"/>
<path d="M0 0 C4.95 0 9.9 0 15 0 C15 1.32 15 2.64 15 4 C10.05 4 5.1 4 0 4 C0 2.68 0 1.36 0 0 Z " fill="#EFEFEF" transform="translate(225,270)"/>
<path d="M0 0 C4.95 0 9.9 0 15 0 C15 1.32 15 2.64 15 4 C10.05 4 5.1 4 0 4 C0 2.68 0 1.36 0 0 Z " fill="#EFEFEF" transform="translate(195,270)"/>
<path d="M0 0 C4.95 0 9.9 0 15 0 C15 1.32 15 2.64 15 4 C10.05 4 5.1 4 0 4 C0 2.68 0 1.36 0 0 Z " fill="#EFEFEF" transform="translate(165,270)"/>
<path d="M0 0 C4.95 0 9.9 0 15 0 C15 1.32 15 2.64 15 4 C10.05 4 5.1 4 0 4 C0 2.68 0 1.36 0 0 Z " fill="#EFEFEF" transform="translate(135,270)"/>
<path d="M0 0 C4.95 0 9.9 0 15 0 C15 1.32 15 2.64 15 4 C10.05 4 5.1 4 0 4 C0 2.68 0 1.36 0 0 Z " fill="#EFEFEF" transform="translate(105,270)"/>
<path d="M0 0 C4.95 0 9.9 0 15 0 C15 1.32 15 2.64 15 4 C10.05 4 5.1 4 0 4 C0 2.68 0 1.36 0 0 Z " fill="#EFEFEF" transform="translate(75,270)"/>
<path d="M0 0 C4.95 0 9.9 0 15 0 C15 1.32 15 2.64 15 4 C10.05 4 5.1 4 0 4 C0 2.68 0 1.36 0 0 Z " fill="#EFEFEF" transform="translate(45,270)"/>
<path d="M0 0 C1.32 0 2.64 0 4 0 C4 4.95 4 9.9 4 15 C2.68 15 1.36 15 0 15 C0 10.05 0 5.1 0 0 Z " fill="#EFEFEF" transform="translate(221,165)"/>
<path d="M0 0 C1.32 0 2.64 0 4 0 C4 4.95 4 9.9 4 15 C2.68 15 1.36 15 0 15 C0 10.05 0 5.1 0 0 Z " fill="#EFEFEF" transform="translate(221,135)"/>
<path d="M0 0 C0 1.65 0 3.3 0 5 C-4.95 5 -9.9 5 -15 5 C-14.67 3.68 -14.34 2.36 -14 1 C-11.85420251 0.83287252 -9.70836101 0.66631 -7.5625 0.5 C-5.77005859 0.36078125 -5.77005859 0.36078125 -3.94140625 0.21875 C-1 0 -1 0 0 0 Z " fill="#F0F0F0" transform="translate(300,130)"/>
<path d="M0 0 C1.32 0 2.64 0 4 0 C4 4.95 4 9.9 4 15 C2.68 15 1.36 15 0 15 C0 10.05 0 5.1 0 0 Z " fill="#EFEFEF" transform="translate(221,105)"/>
<path d="M0 0 C4.95 0 9.9 0 15 0 C15 1.32 15 2.64 15 4 C10.05 4 5.1 4 0 4 C0 2.68 0 1.36 0 0 Z " fill="#FFFFFF" transform="translate(225,56)"/>
<path d="M0 0 C4.95 0 9.9 0 15 0 C15 1.32 15 2.64 15 4 C10.05 4 5.1 4 0 4 C0 2.68 0 1.36 0 0 Z " fill="#FFFFFF" transform="translate(195,56)"/>
<path d="M0 0 C4.95 0 9.9 0 15 0 C15 1.32 15 2.64 15 4 C10.05 4 5.1 4 0 4 C0 2.68 0 1.36 0 0 Z " fill="#F0F0F0" transform="translate(120,56)"/>
<path d="M0 0 C4.95 0 9.9 0 15 0 C15 1.32 15 2.64 15 4 C10.05 4 5.1 4 0 4 C0 2.68 0 1.36 0 0 Z " fill="#FFFFFF" transform="translate(105,56)"/>
<path d="M0 0 C4.95 0 9.9 0 15 0 C15 1.32 15 2.64 15 4 C10.05 4 5.1 4 0 4 C0 2.68 0 1.36 0 0 Z " fill="#F0F0F0" transform="translate(90,56)"/>
<path d="M0 0 C4.95 0 9.9 0 15 0 C15 1.32 15 2.64 15 4 C10.05 4 5.1 4 0 4 C0 2.68 0 1.36 0 0 Z " fill="#EFEFEF" transform="translate(270,266)"/>
<path d="M0 0 C4.95 0 9.9 0 15 0 C15 1.32 15 2.64 15 4 C10.05 4 5.1 4 0 4 C0 2.68 0 1.36 0 0 Z " fill="#EFEFEF" transform="translate(240,266)"/>
<path d="M0 0 C4.95 0 9.9 0 15 0 C15 1.32 15 2.64 15 4 C10.05 4 5.1 4 0 4 C0 2.68 0 1.36 0 0 Z " fill="#EFEFEF" transform="translate(210,266)"/>
<path d="M0 0 C4.95 0 9.9 0 15 0 C15 1.32 15 2.64 15 4 C10.05 4 5.1 4 0 4 C0 2.68 0 1.36 0 0 Z " fill="#EFEFEF" transform="translate(120,266)"/>
<path d="M0 0 C4.95 0 9.9 0 15 0 C15 1.32 15 2.64 15 4 C10.05 4 5.1 4 0 4 C0 2.68 0 1.36 0 0 Z " fill="#EFEFEF" transform="translate(90,266)"/>
<path d="M0 0 C4.95 0 9.9 0 15 0 C15 1.32 15 2.64 15 4 C10.05 4 5.1 4 0 4 C0 2.68 0 1.36 0 0 Z " fill="#EFEFEF" transform="translate(60,266)"/>
<path d="M0 0 C4.95 0 9.9 0 15 0 C15 4.95 15 9.9 15 15 C14.34 15 13.68 15 13 15 C12.67 11.04 12.34 7.08 12 3 C8.04 2.67 4.08 2.34 0 2 C0 1.34 0 0.68 0 0 Z " fill="#EFEFEF" transform="translate(150,225)"/>
<path d="M0 0 C4.95 0 9.9 0 15 0 C15 1.32 15 2.64 15 4 C10.05 3.67 5.1 3.34 0 3 C0 2.01 0 1.02 0 0 Z " fill="#EFEFEF" transform="translate(285,150)"/>
<path d="M0 0 C0 5.61 0 11.22 0 17 C-0.99 16.67 -1.98 16.34 -3 16 C-3 11.05 -3 6.1 -3 1 C-1 0 -1 0 0 0 Z " fill="#FFFFFF" transform="translate(48,104)"/>
<path d="M0 0 C4.95 0 9.9 0 15 0 C15 0.99 15 1.98 15 3 C10.05 3 5.1 3 0 3 C0 2.01 0 1.02 0 0 Z " fill="#FFFFFF" transform="translate(315,345)"/>
<path d="M0 0 C4.95 0 9.9 0 15 0 C15 0.99 15 1.98 15 3 C10.05 3 5.1 3 0 3 C0 2.01 0 1.02 0 0 Z " fill="#EFEFEF" transform="translate(300,345)"/>
<path d="M0 0 C4.95 0 9.9 0 15 0 C15 0.99 15 1.98 15 3 C10.05 3 5.1 3 0 3 C0 2.01 0 1.02 0 0 Z " fill="#FFFFFF" transform="translate(285,345)"/>
<path d="M0 0 C4.95 0 9.9 0 15 0 C15 0.99 15 1.98 15 3 C10.05 3 5.1 3 0 3 C0 2.01 0 1.02 0 0 Z " fill="#EFEFEF" transform="translate(270,345)"/>
<path d="M0 0 C4.95 0 9.9 0 15 0 C15 0.99 15 1.98 15 3 C10.05 3 5.1 3 0 3 C0 2.01 0 1.02 0 0 Z " fill="#FFFFFF" transform="translate(255,345)"/>
<path d="M0 0 C4.95 0 9.9 0 15 0 C15 0.99 15 1.98 15 3 C10.05 3 5.1 3 0 3 C0 2.01 0 1.02 0 0 Z " fill="#EFEFEF" transform="translate(240,345)"/>
<path d="M0 0 C4.95 0 9.9 0 15 0 C15 0.99 15 1.98 15 3 C10.05 3 5.1 3 0 3 C0 2.01 0 1.02 0 0 Z " fill="#FFFFFF" transform="translate(225,345)"/>
<path d="M0 0 C4.95 0 9.9 0 15 0 C15 0.99 15 1.98 15 3 C10.05 3 5.1 3 0 3 C0 2.01 0 1.02 0 0 Z " fill="#EFEFEF" transform="translate(210,345)"/>
<path d="M0 0 C4.95 0 9.9 0 15 0 C15 0.99 15 1.98 15 3 C10.05 3 5.1 3 0 3 C0 2.01 0 1.02 0 0 Z " fill="#FFFFFF" transform="translate(195,345)"/>
<path d="M0 0 C4.95 0 9.9 0 15 0 C15 0.99 15 1.98 15 3 C10.05 3 5.1 3 0 3 C0 2.01 0 1.02 0 0 Z " fill="#EFEFEF" transform="translate(180,345)"/>
<path d="M0 0 C4.95 0 9.9 0 15 0 C15 0.99 15 1.98 15 3 C10.05 3 5.1 3 0 3 C0 2.01 0 1.02 0 0 Z " fill="#FFFFFF" transform="translate(165,345)"/>
<path d="M0 0 C4.95 0 9.9 0 15 0 C15 0.99 15 1.98 15 3 C10.05 3 5.1 3 0 3 C0 2.01 0 1.02 0 0 Z " fill="#EFEFEF" transform="translate(150,345)"/>
<path d="M0 0 C4.95 0 9.9 0 15 0 C15 0.99 15 1.98 15 3 C10.05 3 5.1 3 0 3 C0 2.01 0 1.02 0 0 Z " fill="#FFFFFF" transform="translate(135,345)"/>
<path d="M0 0 C4.95 0 9.9 0 15 0 C15 0.99 15 1.98 15 3 C10.05 3 5.1 3 0 3 C0 2.01 0 1.02 0 0 Z " fill="#EFEFEF" transform="translate(120,345)"/>
<path d="M0 0 C4.95 0 9.9 0 15 0 C15 0.99 15 1.98 15 3 C10.05 3 5.1 3 0 3 C0 2.01 0 1.02 0 0 Z " fill="#FFFFFF" transform="translate(105,345)"/>
<path d="M0 0 C4.95 0 9.9 0 15 0 C15 0.99 15 1.98 15 3 C10.05 3 5.1 3 0 3 C0 2.01 0 1.02 0 0 Z " fill="#EFEFEF" transform="translate(90,345)"/>
<path d="M0 0 C4.95 0 9.9 0 15 0 C15 0.99 15 1.98 15 3 C10.05 3 5.1 3 0 3 C0 2.01 0 1.02 0 0 Z " fill="#EFEFEF" transform="translate(60,345)"/>
<path d="M0 0 C4.95 0 9.9 0 15 0 C15 0.99 15 1.98 15 3 C10.05 3 5.1 3 0 3 C0 2.01 0 1.02 0 0 Z " fill="#EFEFEF" transform="translate(30,345)"/>
<path d="M0 0 C4.95 0 9.9 0 15 0 C15 0.99 15 1.98 15 3 C10.05 3 5.1 3 0 3 C0 2.01 0 1.02 0 0 Z " fill="#EFEFEF" transform="translate(0,345)"/>
<path d="M0 0 C0.99 0 1.98 0 3 0 C3 4.95 3 9.9 3 15 C2.01 15 1.02 15 0 15 C0 10.05 0 5.1 0 0 Z " fill="#FFFFFF" transform="translate(345,315)"/>
<path d="M0 0 C0.99 0 1.98 0 3 0 C3 4.95 3 9.9 3 15 C2.01 15 1.02 15 0 15 C0 10.05 0 5.1 0 0 Z " fill="#EFEFEF" transform="translate(345,300)"/>
<path d="M0 0 C0.99 0 1.98 0 3 0 C3 4.95 3 9.9 3 15 C2.01 15 1.02 15 0 15 C0 10.05 0 5.1 0 0 Z " fill="#FFFFFF" transform="translate(345,285)"/>
<path d="M0 0 C0.99 0 1.98 0 3 0 C3 4.95 3 9.9 3 15 C2.01 15 1.02 15 0 15 C0 10.05 0 5.1 0 0 Z " fill="#EFEFEF" transform="translate(345,270)"/>
<path d="M0 0 C0.99 0 1.98 0 3 0 C3 4.95 3 9.9 3 15 C2.01 15 1.02 15 0 15 C0 10.05 0 5.1 0 0 Z " fill="#FFFFFF" transform="translate(345,255)"/>
<path d="M0 0 C0.99 0 1.98 0 3 0 C3 4.95 3 9.9 3 15 C2.01 15 1.02 15 0 15 C0 10.05 0 5.1 0 0 Z " fill="#EFEFEF" transform="translate(345,240)"/>
<path d="M0 0 C0.99 0 1.98 0 3 0 C3 4.95 3 9.9 3 15 C2.01 15 1.02 15 0 15 C0 10.05 0 5.1 0 0 Z " fill="#FFFFFF" transform="translate(345,225)"/>
<path d="M0 0 C0.99 0 1.98 0 3 0 C3 4.95 3 9.9 3 15 C2.01 15 1.02 15 0 15 C0 10.05 0 5.1 0 0 Z " fill="#EFEFEF" transform="translate(345,210)"/>
<path d="M0 0 C0.99 0 1.98 0 3 0 C3 4.95 3 9.9 3 15 C2.01 15 1.02 15 0 15 C0 10.05 0 5.1 0 0 Z " fill="#FFFFFF" transform="translate(345,195)"/>
<path d="M0 0 C0.99 0 1.98 0 3 0 C3 4.95 3 9.9 3 15 C2.01 15 1.02 15 0 15 C0 10.05 0 5.1 0 0 Z " fill="#EFEFEF" transform="translate(345,180)"/>
<path d="M0 0 C0.99 0 1.98 0 3 0 C3 4.95 3 9.9 3 15 C2.01 15 1.02 15 0 15 C0 10.05 0 5.1 0 0 Z " fill="#FFFFFF" transform="translate(345,165)"/>
<path d="M0 0 C0.99 0 1.98 0 3 0 C3 4.95 3 9.9 3 15 C2.01 15 1.02 15 0 15 C0 10.05 0 5.1 0 0 Z " fill="#EFEFEF" transform="translate(345,150)"/>
<path d="M0 0 C0.99 0 1.98 0 3 0 C3 4.95 3 9.9 3 15 C2.01 15 1.02 15 0 15 C0 10.05 0 5.1 0 0 Z " fill="#FFFFFF" transform="translate(345,135)"/>
<path d="M0 0 C0.99 0 1.98 0 3 0 C3 4.95 3 9.9 3 15 C2.01 15 1.02 15 0 15 C0 10.05 0 5.1 0 0 Z " fill="#EFEFEF" transform="translate(345,120)"/>
<path d="M0 0 C0.99 0 1.98 0 3 0 C3 4.95 3 9.9 3 15 C2.01 15 1.02 15 0 15 C0 10.05 0 5.1 0 0 Z " fill="#FFFFFF" transform="translate(345,105)"/>
<path d="M0 0 C0.99 0 1.98 0 3 0 C3 4.95 3 9.9 3 15 C2.01 15 1.02 15 0 15 C0 10.05 0 5.1 0 0 Z " fill="#EFEFEF" transform="translate(345,90)"/>
<path d="M0 0 C0.99 0 1.98 0 3 0 C3 4.95 3 9.9 3 15 C2.01 15 1.02 15 0 15 C0 10.05 0 5.1 0 0 Z " fill="#EFEFEF" transform="translate(345,60)"/>
<path d="M0 0 C0.99 0 1.98 0 3 0 C3 4.95 3 9.9 3 15 C2.01 15 1.02 15 0 15 C0 10.05 0 5.1 0 0 Z " fill="#EFEFEF" transform="translate(345,30)"/>
<path d="M0 0 C0.99 0 1.98 0 3 0 C3 4.95 3 9.9 3 15 C2.01 15 1.02 15 0 15 C0 10.05 0 5.1 0 0 Z " fill="#EFEFEF" transform="translate(345,0)"/>
<path d="M0 0 C0.99 0.33 1.98 0.66 3 1 C3 5.29 3 9.58 3 14 C2.01 14.33 1.02 14.66 0 15 C0 10.05 0 5.1 0 0 Z " fill="#F1F1F1" transform="translate(45,240)"/>
<path d="M0 0 C0.99 0.33 1.98 0.66 3 1 C3 5.29 3 9.58 3 14 C2.01 14.33 1.02 14.66 0 15 C0 10.05 0 5.1 0 0 Z " fill="#F1F1F1" transform="translate(45,210)"/>
<path d="M0 0 C0.99 0.33 1.98 0.66 3 1 C3 5.29 3 9.58 3 14 C2.01 14.33 1.02 14.66 0 15 C0 10.05 0 5.1 0 0 Z " fill="#F1F1F1" transform="translate(45,180)"/>
<path d="M0 0 C0.99 0.33 1.98 0.66 3 1 C3 5.29 3 9.58 3 14 C2.01 14.33 1.02 14.66 0 15 C0 10.05 0 5.1 0 0 Z " fill="#F1F1F1" transform="translate(45,90)"/>
<path d="M0 0 C0.99 0.33 1.98 0.66 3 1 C3 5.29 3 9.58 3 14 C2.01 14.33 1.02 14.66 0 15 C0 10.05 0 5.1 0 0 Z " fill="#F1F1F1" transform="translate(45,60)"/>
<path d="M0 0 C0.99 0.33 1.98 0.66 3 1 C3 5.29 3 9.58 3 14 C2.01 14.33 1.02 14.66 0 15 C0 10.05 0 5.1 0 0 Z " fill="#F1F1F1" transform="translate(45,30)"/>
<path d="M0 0 C1.98 0 3.96 0 6 0 C6.33 1.65 6.66 3.3 7 5 C4.69 5 2.38 5 0 5 C0 3.35 0 1.7 0 0 Z " fill="#051774" transform="translate(187,306)"/>
<path d="M0 0 C2.12508244 3.18762365 2.5020163 5.26512223 3 9 C1.35 9 -0.3 9 -2 9 C-1.34 6.03 -0.68 3.06 0 0 Z " fill="#14247C" transform="translate(219,299)"/>
<path d="M0 0 C1.98 0 3.96 0 6 0 C6 1.32 6 2.64 6 4 C4.02 4 2.04 4 0 4 C0 2.68 0 1.36 0 0 Z " fill="#071774" transform="translate(187,297)"/>
<path d="M0 0 C1.98 0 3.96 0 6 0 C5.67 1.98 5.34 3.96 5 6 C4.67 5.34 4.34 4.68 4 4 C2.68 4 1.36 4 0 4 C0 2.68 0 1.36 0 0 Z " fill="#FDFDFD" transform="translate(255,56)"/>
</svg>
