<?xml version="1.0" encoding="UTF-8"?>
<svg version="1.1" xmlns="http://www.w3.org/2000/svg" width="256" height="244">
<path d="M0 0 C0.79899216 -0.0033284 1.59798431 -0.0066568 2.42118835 -0.01008606 C4.10980658 -0.01514122 5.79843476 -0.01749482 7.48706055 -0.01733398 C10.05469481 -0.01951467 12.62189514 -0.03766913 15.18945312 -0.05664062 C16.83463396 -0.0595761 18.47981682 -0.06155987 20.125 -0.0625 C21.26597893 -0.07327827 21.26597893 -0.07327827 22.43000793 -0.08427429 C28.16187454 -0.06002825 33.34437574 0.59669579 38.26171875 3.79296875 C40.45398742 7.2640608 39.59299411 10.33491384 38.76171875 14.16796875 C37.78366514 16.78644656 36.76776891 19.21768397 35.57421875 21.73046875 C34.85146397 23.30594438 34.12881656 24.88146928 33.40625 26.45703125 C32.99455566 27.34422852 32.58286133 28.23142578 32.15869141 29.14550781 C29.6356836 34.60423493 27.1615897 40.08525063 24.68432617 45.56484985 C24.06722107 46.92976011 23.44970532 48.29448476 22.83178711 49.6590271 C18.98996486 58.14524233 15.22518597 66.65417998 11.65478516 75.25878906 C8.62693754 82.54409943 5.44661232 89.75941069 2.25805664 96.97558594 C-0.44551061 103.09459963 -3.13671019 109.21866387 -5.80859375 115.3515625 C-6.42561306 116.76668531 -7.0426378 118.18180575 -7.65966797 119.59692383 C-8.55935545 121.66053997 -9.45848585 123.72438732 -10.35552979 125.78915405 C-12.29706479 130.25747915 -14.25945851 134.71603909 -16.23828125 139.16796875 C-16.53871338 139.8487146 -16.83914551 140.52946045 -17.14868164 141.23083496 C-18.05915672 143.2848562 -18.9827854 145.3324662 -19.91015625 147.37890625 C-20.18442444 148.00149323 -20.45869263 148.6240802 -20.74127197 149.26553345 C-22.44734196 152.9847045 -23.94298521 155.7202137 -27.23828125 158.16796875 C-30.30390558 158.7575286 -33.32799856 158.69370758 -36.44140625 158.65380859 C-37.37190796 158.65760529 -38.30240967 158.66140198 -39.2611084 158.66531372 C-42.33717547 158.67272364 -45.4122981 158.65133024 -48.48828125 158.62890625 C-50.62532439 158.62652198 -52.76236965 158.62561647 -54.89941406 158.62612915 C-59.37838867 158.62300037 -63.85704337 158.60642888 -68.3359375 158.57958984 C-74.07953506 158.54561008 -79.82278098 158.53796125 -85.56646729 158.53948021 C-89.97936363 158.53893655 -94.39218297 158.52797002 -98.80505371 158.51347733 C-100.9229677 158.50710935 -103.04089043 158.50317043 -105.15881348 158.50168991 C-108.11774579 158.49735696 -111.0763042 158.47985583 -114.03515625 158.45849609 C-114.91216187 158.45940247 -115.78916748 158.46030884 -116.69274902 158.46124268 C-117.50022583 158.45271271 -118.30770264 158.44418274 -119.13964844 158.43539429 C-119.838703 158.4320426 -120.53775757 158.42869091 -121.25799561 158.42523766 C-123.61032707 158.1196344 -125.20955295 157.38189766 -127.23828125 156.16796875 C-128.49926758 154.45068359 -128.49926758 154.45068359 -129.5703125 152.37890625 C-129.97266113 151.6103833 -130.37500977 150.84186035 -130.78955078 150.05004883 C-131.41385986 148.80904419 -131.41385986 148.80904419 -132.05078125 147.54296875 C-132.49019043 146.68920654 -132.92959961 145.83544434 -133.38232422 144.95581055 C-136.38168049 139.05846463 -139.11800351 133.07794608 -141.70996094 126.99267578 C-144.51308076 120.43207915 -147.7060072 114.08867364 -150.93798828 107.73193359 C-153.72288293 102.2405773 -156.48072613 96.73559016 -159.23828125 91.23046875 C-159.54337616 90.62170898 -159.84847107 90.01294922 -160.16281128 89.38574219 C-164.42598244 80.87327398 -168.59591516 72.32582999 -172.58984375 63.68359375 C-174.12234099 60.41523471 -175.75125677 57.22189649 -177.4453125 54.03540039 C-178.73067731 51.00838209 -178.61662708 48.38390827 -178.23828125 45.16796875 C-176.23828125 42.16796875 -176.23828125 42.16796875 -174.06616211 41.66943359 C-165.45586554 41.1605171 -156.851467 40.88268524 -148.22680664 40.81787109 C-146.59678035 40.80113942 -144.96683226 40.77363032 -143.3371582 40.73583984 C-140.95095997 40.68111598 -138.56642785 40.65923283 -136.1796875 40.64453125 C-135.45568253 40.62186188 -134.73167755 40.5991925 -133.98573303 40.57583618 C-130.09101417 40.59212064 -128.42164545 41.01953994 -125.35766602 43.49975586 C-122.95764537 46.52127707 -121.23622137 49.63018837 -119.61328125 53.10546875 C-118.91739351 54.54722605 -118.22073698 55.98861245 -117.5234375 57.4296875 C-117.15492676 58.19845215 -116.78641602 58.9672168 -116.40673828 59.75927734 C-115.20888211 62.22857299 -113.97750157 64.67820364 -112.734375 67.125 C-106.91145686 78.5955573 -101.40874016 90.18858395 -96.02709961 101.87231445 C-92.65685678 109.16903415 -89.20994785 116.41751877 -85.61328125 123.60546875 C-85.01084595 124.81130615 -85.01084595 124.81130615 -84.39624023 126.04150391 C-83.67192006 127.47642784 -82.93880604 128.90696911 -82.19433594 130.33154297 C-81.35725725 131.93943518 -80.56354807 133.56975399 -79.77734375 135.203125 C-79.26945312 135.85152344 -78.7615625 136.49992188 -78.23828125 137.16796875 C-75.61133703 137.58577754 -75.61133703 137.58577754 -73.23828125 137.16796875 C-69.48786288 130.15396516 -66.37913485 122.90989131 -63.35742188 115.5612793 C-61.46219711 110.97809702 -59.46584182 106.45860704 -57.375 101.9609375 C-54.12026759 94.95833141 -51.04286842 87.88459255 -47.98828125 80.79296875 C-47.41774661 79.47184402 -46.84702409 78.15080042 -46.27612305 76.82983398 C-45.13261212 74.18382046 -43.98969395 71.53755223 -42.84716797 68.89111328 C-40.5907818 63.66695228 -38.32137797 58.44846591 -36.05078125 53.23046875 C-35.65455566 52.319021 -35.25833008 51.40757324 -34.85009766 50.46850586 C-32.75069827 45.63988726 -30.64702924 40.81316615 -28.5390625 35.98828125 C-28.09135498 34.96210693 -27.64364746 33.93593262 -27.18237305 32.87866211 C-26.33483773 30.93621721 -25.48614021 28.99427877 -24.63598633 27.05297852 C-22.38120302 21.8820652 -20.22582397 16.68846821 -18.19482422 11.42529297 C-16.66018265 7.80372687 -14.87921542 4.10831115 -12.23828125 1.16796875 C-8.31943737 -0.28810705 -4.12194075 0.00598258 0 0 Z " fill="#402B80" transform="translate(195.23828125,42.83203125)"/>
<path d="M0 0 C1.21157021 -0.00945648 1.21157021 -0.00945648 2.44761658 -0.019104 C3.75080589 -0.01303131 3.75080589 -0.01303131 5.08032227 -0.00683594 C5.97662857 -0.00874939 6.87293488 -0.01066284 7.79640198 -0.01263428 C9.69190756 -0.01399517 11.58742249 -0.01030541 13.48291016 -0.00195312 C16.38213094 0.00873525 19.28073032 -0.00184517 22.17993164 -0.01464844 C24.02172988 -0.01332658 25.86352774 -0.01076364 27.70532227 -0.00683594 C28.57209091 -0.0108844 29.43885956 -0.01493286 30.33189392 -0.019104 C31.14275955 -0.01279968 31.95362518 -0.00649536 32.7890625 0 C33.8547068 0.00238678 33.8547068 0.00238678 34.94187927 0.00482178 C37.28290284 0.29953694 38.91747105 1.10392285 40.95922852 2.25878906 C41.28040565 8.23661653 40.66251094 11.81232521 37.89672852 17.25878906 C37.25388736 18.55326379 36.61334277 19.84888102 35.97485352 21.14550781 C35.47695312 22.14590088 35.47695312 22.14590088 34.96899414 23.16650391 C32.91352301 27.42554346 31.10385371 31.79741747 29.26953125 36.15527344 C28.06761675 38.95867979 27.13751033 41.08050725 24.95922852 43.25878906 C23.01707458 43.50602722 23.01707458 43.50602722 20.6171875 43.50170898 C19.27085487 43.50632393 19.27085487 43.50632393 17.89732361 43.5110321 C16.44103294 43.50025383 16.44103294 43.50025383 14.95532227 43.48925781 C13.96170181 43.48879959 12.96808136 43.48834137 11.9443512 43.48786926 C9.84195767 43.48484516 7.73956643 43.47695416 5.63720703 43.46459961 C2.40657682 43.44634471 -0.82376697 43.44408987 -4.05444336 43.44433594 C-6.09285731 43.43942086 -8.13126931 43.43359259 -10.16967773 43.42675781 C-11.14256241 43.42564499 -12.11544708 43.42453217 -13.11781311 43.42338562 C-14.01221603 43.41700577 -14.90661896 43.41062592 -15.828125 43.40405273 C-16.61929214 43.40024094 -17.41045929 43.39642914 -18.2256012 43.39250183 C-20.04077148 43.25878906 -20.04077148 43.25878906 -21.04077148 42.25878906 C-22.21185554 33.76842967 -18.74151203 27.68625388 -15.04614258 20.33496094 C-12.99303935 16.09513825 -11.2207346 11.72175342 -9.43896484 7.36206055 C-7.32871623 2.3820246 -5.56555216 0.01247944 0 0 Z " fill="#F4911B" transform="translate(91.040771484375,42.7412109375)"/>
<path d="M0 0 C3.08319047 2.64813905 4.77503809 5.9517276 6.625 9.5 C6.96764893 10.14928467 7.31029785 10.79856934 7.66333008 11.4675293 C11.29555084 18.4297635 14.62475858 25.53379868 17.9453125 32.6484375 C19.91658323 36.8606937 22.01586092 40.99575545 24.22265625 45.08984375 C25 47 25 47 25 51 C26.485 51.495 26.485 51.495 28 52 C29.1328125 54.14453125 29.1328125 54.14453125 30.125 56.8125 C30.45757812 57.68519531 30.79015625 58.55789062 31.1328125 59.45703125 C32 62 32 62 33 66 C82.5 66.495 82.5 66.495 133 67 C133.66 65.35 134.32 63.7 135 62 C135.66 62 136.32 62 137 62 C135.70395027 64.89118786 134.45054216 66.97059669 132 69 C128.90303998 69.29131216 126.00799225 69.39920198 122.91040039 69.37231445 C121.51486687 69.37779045 121.51486687 69.37779045 120.09114075 69.38337708 C117.00979466 69.39149573 113.92897233 69.37786037 110.84765625 69.36328125 C108.70918274 69.36276276 106.57070875 69.36328004 104.43223572 69.36479187 C99.94734596 69.36470208 95.46263572 69.35426049 90.9777832 69.33618164 C85.22632072 69.31350807 79.47512099 69.31294727 73.72362614 69.31969929 C69.30644899 69.32303973 64.88933183 69.31640749 60.47216606 69.30657005 C58.35145825 69.30271805 56.23074376 69.30156984 54.11003304 69.3031559 C51.14622396 69.30352643 48.18275254 69.29090907 45.21899414 69.2746582 C44.34041748 69.27713562 43.46184082 69.27961304 42.55664062 69.28216553 C41.74771866 69.27508072 40.93879669 69.26799591 40.10536194 69.26069641 C39.05483186 69.25761711 39.05483186 69.25761711 37.98307896 69.25447559 C35.62761437 68.95221418 34.03061597 68.21580754 32 67 C30.73901367 65.28271484 30.73901367 65.28271484 29.66796875 63.2109375 C29.26562012 62.44241455 28.86327148 61.6738916 28.44873047 60.88208008 C28.03252441 60.05474365 27.61631836 59.22740723 27.1875 58.375 C26.74809082 57.52123779 26.30868164 56.66747559 25.85595703 55.7878418 C22.86193668 49.90098739 20.12513337 43.93263776 17.54370117 37.85546875 C14.36576575 30.40208752 10.68217131 23.21390372 7 16 C5.66213101 13.37727192 4.32954894 10.75195344 3 8.125 C2.4225 6.99320313 1.845 5.86140625 1.25 4.6953125 C0 2 0 2 0 0 Z " fill="#0E073E" transform="translate(36,132)"/>
<path d="M0 0 C1.21157021 -0.00945648 1.21157021 -0.00945648 2.44761658 -0.019104 C3.75080589 -0.01303131 3.75080589 -0.01303131 5.08032227 -0.00683594 C5.97662857 -0.00874939 6.87293488 -0.01066284 7.79640198 -0.01263428 C9.69190756 -0.01399517 11.58742249 -0.01030541 13.48291016 -0.00195312 C16.38213094 0.00873525 19.28073032 -0.00184517 22.17993164 -0.01464844 C24.02172988 -0.01332658 25.86352774 -0.01076364 27.70532227 -0.00683594 C28.57209091 -0.0108844 29.43885956 -0.01493286 30.33189392 -0.019104 C31.14275955 -0.01279968 31.95362518 -0.00649536 32.7890625 0 C33.8547068 0.00238678 33.8547068 0.00238678 34.94187927 0.00482178 C37.28290284 0.29953694 38.91747105 1.10392285 40.95922852 2.25878906 C40.95922852 4.89878906 40.95922852 7.53878906 40.95922852 10.25878906 C40.29922852 10.58878906 39.63922852 10.91878906 38.95922852 11.25878906 C38.95922852 8.61878906 38.95922852 5.97878906 38.95922852 3.25878906 C24.43922852 3.58878906 9.91922852 3.91878906 -5.04077148 4.25878906 C-10.80506922 15.08027776 -10.80506922 15.08027776 -13.04077148 22.25878906 C-13.70077148 22.58878906 -14.36077148 22.91878906 -15.04077148 23.25878906 C-14.35127576 18.51617655 -12.57291539 14.42540894 -10.66577148 10.07128906 C-10.20944336 8.98557617 -10.20944336 8.98557617 -9.74389648 7.87792969 C-7.50107573 2.72615124 -5.8306563 0.01307387 0 0 Z " fill="#C27124" transform="translate(91.040771484375,42.7412109375)"/>
<path d="M0 0 C0.95493033 2.5503627 1.13757911 3.65605223 0.109375 6.2265625 C-0.33921875 7.01804687 -0.7878125 7.80953125 -1.25 8.625 C-3.55664679 12.93243986 -5.04003105 17.04272118 -6.2265625 21.7734375 C-7.09854642 24.28369425 -8.37713148 25.91284627 -10 28 C-10.72351427 29.98014432 -11.40265389 31.97821315 -12 34 C-12.66 34 -13.32 34 -14 34 C-14.103125 35.0725 -14.20625 36.145 -14.3125 37.25 C-15.01743141 41.09508043 -15.68429884 42.06084084 -18 45 C-18.75101637 46.92652026 -19.49706123 48.85563639 -20.1875 50.8046875 C-21.01026607 53.02773813 -21.94922977 55.15837974 -22.9375 57.3125 C-25.25668441 62.43440533 -27.13695961 67.69826271 -29 73 C-29.66 73 -30.32 73 -31 73 C-31.11472656 73.53367187 -31.22945312 74.06734375 -31.34765625 74.6171875 C-32.15416081 77.56310236 -33.26926413 80.30320772 -34.4375 83.125 C-34.86933594 84.17945313 -35.30117187 85.23390625 -35.74609375 86.3203125 C-37 89 -37 89 -39 91 C-38.38316756 87.30895426 -37.34307069 84.19159926 -35.8125 80.78125 C-35.36575928 79.77755371 -34.91901855 78.77385742 -34.45874023 77.73974609 C-33.97735596 76.67062988 -33.49597168 75.60151367 -33 74.5 C-31.99004248 72.23214604 -30.98094021 69.96391102 -29.97265625 67.6953125 C-29.46879395 66.56383789 -28.96493164 65.43236328 -28.44580078 64.26660156 C-26.40367954 59.65269035 -24.41499509 55.01690011 -22.4375 50.375 C-18.8201492 41.89256976 -15.15196472 33.43320901 -11.44897461 24.98779297 C-9.16861001 19.76682249 -6.9859359 14.52387397 -4.92993164 9.21020508 C-3.56031848 5.95499164 -1.8347468 3.01422688 0 0 Z " fill="#1A0F44" transform="translate(182,45)"/>
<path d="M0 0 C0.33 0.99 0.66 1.98 1 3 C0.54625 3.86625 0.0925 4.7325 -0.375 5.625 C-2.58578495 9.73933277 -2.58578495 9.73933277 -3 18 C11.85 18 26.7 18 42 18 C41.67 18.66 41.34 19.32 41 20 C34.60962769 20.02527062 28.21926817 20.04283317 21.82885742 20.05493164 C19.65307127 20.05997308 17.47728853 20.06680607 15.30151367 20.07543945 C12.18146933 20.08751338 9.06146962 20.09323005 5.94140625 20.09765625 C4.47266808 20.10539818 4.47266808 20.10539818 2.97425842 20.11329651 C2.07340012 20.11337204 1.17254181 20.11344757 0.24438477 20.11352539 C-0.95141457 20.11685631 -0.95141457 20.11685631 -2.17137146 20.12025452 C-4 20 -4 20 -5 19 C-5.73163839 11.31779688 -3.85700885 6.59824013 0 0 Z " fill="#84460E" transform="translate(75,66)"/>
<path d="M0 0 C3.08319047 2.64813905 4.77503809 5.9517276 6.625 9.5 C6.96764893 10.14928467 7.31029785 10.79856934 7.66333008 11.4675293 C11.29824086 18.43491972 14.62955571 25.54441649 17.953125 32.6640625 C19.53713972 36.04862239 21.20524915 39.37584397 22.9375 42.6875 C24.99088945 46.71639171 26.09828329 50.57339068 27 55 C24.59152256 52.82395324 23.30043416 50.86690419 22.01953125 47.89453125 C21.6642334 47.08387207 21.30893555 46.27321289 20.94287109 45.43798828 C20.56984863 44.57157715 20.19682617 43.70516602 19.8125 42.8125 C16.96689526 36.34436937 14.06342509 29.93193891 10.875 23.625 C10.39123901 22.66726685 10.39123901 22.66726685 9.89770508 21.69018555 C8.93503337 19.79179209 7.96821945 17.89556933 7 16 C5.66194671 13.37736463 4.32948972 10.75198456 3 8.125 C2.4225 6.99320313 1.845 5.86140625 1.25 4.6953125 C0 2 0 2 0 0 Z " fill="#0D072D" transform="translate(36,132)"/>
<path d="M0 0 C0.81094116 -0.00630432 1.62188232 -0.01260864 2.45739746 -0.019104 C3.76529236 -0.01303131 3.76529236 -0.01303131 5.09960938 -0.00683594 C6.44762634 -0.00970612 6.44762634 -0.00970612 7.82287598 -0.01263428 C9.72257772 -0.01399504 11.62228879 -0.01030621 13.52197266 -0.00195312 C16.43217833 0.00874795 19.34176669 -0.00185208 22.25195312 -0.01464844 C24.09700657 -0.01332682 25.94205964 -0.01076439 27.78710938 -0.00683594 C28.65903931 -0.0108844 29.53096924 -0.01493286 30.42932129 -0.019104 C31.24026245 -0.01279968 32.05120361 -0.00649536 32.88671875 0 C33.95569397 0.00238678 33.95569397 0.00238678 35.04626465 0.00482178 C36.94335938 0.25878906 36.94335938 0.25878906 39.94335938 2.25878906 C38.69200195 2.24307861 37.44064453 2.22736816 36.15136719 2.21118164 C31.50722697 2.15686801 26.86311483 2.12243367 22.21875 2.09399414 C20.20893634 2.07891081 18.19915558 2.05844134 16.18945312 2.0324707 C13.30004761 1.99606762 10.41107742 1.97905818 7.52148438 1.96582031 C6.62343079 1.95033646 5.7253772 1.9348526 4.80010986 1.91889954 C-0.07347168 1.89522789 -0.07347168 1.89522789 -4.56152344 3.58569336 C-6.84192172 6.13754989 -7.88221848 9.0977822 -9.05664062 12.25878906 C-9.73771663 14.05290756 -10.42544398 15.84451249 -11.11914062 17.63378906 C-11.44011719 18.48714844 -11.76109375 19.34050781 -12.09179688 20.21972656 C-13.05664062 22.25878906 -13.05664062 22.25878906 -15.05664062 23.25878906 C-14.3671449 18.51617655 -12.58878454 14.42540894 -10.68164062 10.07128906 C-10.2253125 8.98557617 -10.2253125 8.98557617 -9.75976562 7.87792969 C-7.51216847 2.71517982 -5.83939318 0.01303804 0 0 Z " fill="#380F02" transform="translate(91.056640625,42.7412109375)"/>
<path d="M0 0 C0.33 0 0.66 0 1 0 C1 1.98 1 3.96 1 6 C0.01 6.33 -0.98 6.66 -2 7 C-2 9.31 -2 11.62 -2 14 C-2.99 14.33 -3.98 14.66 -5 15 C-5.103125 16.11375 -5.20625 17.2275 -5.3125 18.375 C-5.539375 19.57125 -5.76625 20.7675 -6 22 C-6.99 22.66 -7.98 23.32 -9 24 C-9.73343428 27.06556598 -9.73343428 27.06556598 -10 30 C-10.99 30.33 -11.98 30.66 -13 31 C-12.44895466 26.37121914 -11.13730221 23.11628574 -9 19 C-8.34024531 17.38060213 -7.69556464 15.75501683 -7.0625 14.125 C-2.48332294 2.48332294 -2.48332294 2.48332294 0 0 Z " fill="#DD923C" transform="translate(86,46)"/>
<path d="M0 0 C0.33 0.99 0.66 1.98 1 3 C0.67 3.66 0.34 4.32 0 5 C-0.185625 6.2065625 -0.185625 6.2065625 -0.375 7.4375 C-1.06632676 10.27193971 -1.90152468 11.08400079 -4 13 C-4 13.66 -4 14.32 -4 15 C9.86 15.33 23.72 15.66 38 16 C38 16.33 38 16.66 38 17 C23.48 17 8.96 17 -6 17 C-6 14.03 -6 11.06 -6 8 C-4.68 8.33 -3.36 8.66 -2 9 C-2.04125 8.071875 -2.0825 7.14375 -2.125 6.1875 C-2 3 -2 3 0 0 Z " fill="#F09A2C" transform="translate(78,67)"/>
<path d="M0 0 C0.578125 1.859375 0.578125 1.859375 1 4 C0.05607981 5.69905634 -0.95650161 7.36021682 -2 9 C-2.66423523 10.82664689 -3.32718492 12.65378288 -3.98046875 14.484375 C-5.8245181 19.03444312 -8.14066871 23.3647022 -10.37890625 27.73046875 C-11.73033013 30.45611161 -12.92394817 33.15729591 -14 36 C-15.13290898 32.60127306 -14.93506998 32.17673349 -13.59375 29.04296875 C-13.26503906 28.26606689 -12.93632812 27.48916504 -12.59765625 26.6887207 C-12.23542969 25.86331787 -11.87320313 25.03791504 -11.5 24.1875 C-11.13777344 23.34469482 -10.77554688 22.50188965 -10.40234375 21.63354492 C-7.20599194 14.28096127 -3.70973313 7.10645753 0 0 Z " fill="#15093D" transform="translate(142,137)"/>
<path d="M0 0 C0.66 0 1.32 0 2 0 C2 0.99 2 1.98 2 3 C3.32 3 4.64 3 6 3 C6.53251766 4.91345327 7.05059483 6.8309295 7.5625 8.75 C7.85253906 9.81734375 8.14257812 10.8846875 8.44140625 11.984375 C8.98742254 14.93209929 8.82156762 16.21769433 8 19 C6.66042079 16.21128823 5.32941565 13.41856938 4 10.625 C3.6184375 9.8309375 3.236875 9.036875 2.84375 8.21875 C2.4828125 7.45820312 2.121875 6.69765625 1.75 5.9140625 C1.41484375 5.2123291 1.0796875 4.5105957 0.734375 3.78759766 C0 2 0 2 0 0 Z " fill="#201647" transform="translate(22,103)"/>
<path d="M0 0 C0.33 0.66 0.66 1.32 1 2 C0.09176973 4.43557572 -0.86828071 6.76195517 -1.9375 9.125 C-2.22818359 9.78371094 -2.51886719 10.44242188 -2.81835938 11.12109375 C-3.53860198 12.75049505 -4.26841143 14.37566132 -5 16 C-5.89130413 13.3260876 -6.47731534 10.76276177 -7 8 C-6.1028125 7.4121875 -6.1028125 7.4121875 -5.1875 6.8125 C-2.74488768 4.78862122 -1.49887186 2.77291294 0 0 Z " fill="#24175B" transform="translate(192,148)"/>
<path d="M0 0 C0.33 0 0.66 0 1 0 C1.57374185 6.88490225 0.4753869 11.02667877 -3 17 C-4.85537656 11.43387031 -2.35249922 5.20910541 0 0 Z " fill="#B86C17" transform="translate(121,67)"/>
<path d="M0 0 C1 4 1 4 -0.25 6.25 C-0.8275 7.1575 -1.405 8.065 -2 9 C-3.0957333 11.6386044 -4.04139218 14.30676852 -5 17 C-5.66 16.01 -6.32 15.02 -7 14 C-4.69 9.38 -2.38 4.76 0 0 Z " fill="#18104A" transform="translate(142,137)"/>
<path d="M0 0 C0.71484375 1.578125 0.71484375 1.578125 1 4 C-0.05709499 6.38494456 -1.1317889 8.51234067 -2.4375 10.75 C-2.77587891 11.35199219 -3.11425781 11.95398438 -3.46289062 12.57421875 C-4.29768265 14.05568065 -5.14741494 15.52870608 -6 17 C-6.33 16.34 -6.66 15.68 -7 15 C-6.328125 13.046875 -6.328125 13.046875 -5.25 10.75 C-4.87875 9.95207031 -4.5075 9.15414062 -4.125 8.33203125 C-2.77804296 5.53990155 -1.41462955 2.75852763 0 0 Z " fill="#18093F" transform="translate(182,45)"/>
<path d="M0 0 C0.33 0.66 0.66 1.32 1 2 C0.04108824 3.71942798 -0.92546585 5.43555902 -1.94921875 7.1171875 C-3.17531273 9.17683075 -3.17531273 9.17683075 -4.125 12.375 C-5 15 -5 15 -7 16 C-6.37099631 12.3945768 -5.41162002 9.15080065 -4.0625 5.75 C-3.72347656 4.87859375 -3.38445312 4.0071875 -3.03515625 3.109375 C-2 1 -2 1 0 0 Z " fill="#4D270A" transform="translate(83,50)"/>
<path d="M0 0 C0.33 0.99 0.66 1.98 1 3 C0.67 3.66 0.34 4.32 0 5 C-0.103125 5.804375 -0.20625 6.60875 -0.3125 7.4375 C-1.15395154 10.57381939 -2.28801893 11.33781806 -5 13 C-5.33 11.35 -5.66 9.7 -6 8 C-4.68 8.33 -3.36 8.66 -2 9 C-2.04125 8.071875 -2.0825 7.14375 -2.125 6.1875 C-2 3 -2 3 0 0 Z " fill="#E8912A" transform="translate(78,67)"/>
<path d="M0 0 C0.66 0 1.32 0 2 0 C6 6.75 6 6.75 6 9 C5.34 9 4.68 9 4 9 C3.67 8.01 3.34 7.02 3 6 C1.35 5.67 -0.3 5.34 -2 5 C-1.34 3.35 -0.68 1.7 0 0 Z " fill="#302561" transform="translate(110,171)"/>
<path d="M0 0 C2.54344286 2.27301934 3.87616437 4.45086481 5.25 7.5625 C5.60578125 8.34753906 5.9615625 9.13257813 6.328125 9.94140625 C7 12 7 12 6 14 C4.99515796 12.04414675 3.99626195 10.08523763 3 8.125 C2.1646875 6.48917969 2.1646875 6.48917969 1.3125 4.8203125 C0 2 0 2 0 0 Z " fill="#090426" transform="translate(56,173)"/>
<path d="M0 0 C1.305239 3.91571701 0.32239848 5.03892997 -1.4375 8.6875 C-1.91058594 9.68136719 -2.38367188 10.67523438 -2.87109375 11.69921875 C-3.42990234 12.83810547 -3.42990234 12.83810547 -4 14 C-5.10102197 10.69693408 -4.95067299 9.28414305 -4 6 C-3.34 5.67 -2.68 5.34 -2 5 C-1.27840576 3.35636866 -0.60648579 1.68949614 0 0 Z " fill="#8E4F0A" transform="translate(129,54)"/>
<path d="M0 0 C6 7.71428571 6 7.71428571 6 12 C5.34 12 4.68 12 4 12 C3.32645501 10.56570999 2.66140299 9.12742943 2 7.6875 C1.62875 6.88699219 1.2575 6.08648437 0.875 5.26171875 C0 3 0 3 0 0 Z " fill="#160B3B" transform="translate(51,161)"/>
<path d="M0 0 C0.33 0.66 0.66 1.32 1 2 C0.22265625 3.7265625 0.22265625 3.7265625 -0.9375 5.625 C-1.618125 6.73875 -2.29875 7.8525 -3 9 C-3.33 8.01 -3.66 7.02 -4 6 C-2.0625 2.8125 -2.0625 2.8125 0 0 Z " fill="#241451" transform="translate(167,81)"/>
</svg>
